/* XPM */
static char *_2d318d5013d47a4bfdfaae31600552dBYuAn7uUHikhgE0N[] = {
/* columns rows colors chars-per-pixel */
"64 64 206 2 ",
"   c None",
".  c #360303",
"X  c #3D0101",
"o  c #440101",
"O  c #4C0101",
"+  c #450D0D",
"@  c #4B0C0C",
"#  c #540101",
"$  c #5C0101",
"%  c #530C0C",
"&  c #5A0B05",
"*  c #4B1212",
"=  c #461616",
"-  c #531414",
";  c #551A1A",
":  c #5B1A1A",
">  c #591515",
",  c #630101",
"<  c #6B0201",
"1  c #630C01",
"2  c #6C0C01",
"3  c #600C0C",
"4  c #740201",
"5  c #7B0201",
"6  c #740C01",
"7  c #7B0B01",
"8  c #691101",
"9  c #751101",
"0  c #7B1101",
"q  c #721008",
"w  c #6C1E1E",
"e  c #651616",
"r  c #731C1C",
"t  c #5E2222",
"y  c #542121",
"u  c #622222",
"i  c #6A2121",
"p  c #662B2B",
"a  c #7A2929",
"s  c #623535",
"d  c #6E3737",
"f  c #743E3E",
"g  c #763636",
"h  c #7A4242",
"j  c #784949",
"k  c #714B4B",
"l  c #775353",
"z  c #840201",
"x  c #8B0201",
"c  c #830C01",
"v  c #8B0B01",
"b  c #930200",
"n  c #9B0100",
"m  c #950C01",
"M  c #9B0B00",
"N  c #841301",
"B  c #8A1301",
"V  c #8C1F01",
"C  c #931101",
"Z  c #9C1201",
"A  c #A40100",
"S  c #AB0100",
"D  c #A40C01",
"F  c #AA0B00",
"G  c #B40100",
"H  c #BB0100",
"J  c #B30C00",
"K  c #BC0B00",
"L  c #A21100",
"P  c #AC1300",
"I  c #AB1A01",
"U  c #B41400",
"Y  c #BC1300",
"T  c #B41B01",
"R  c #BB1A01",
"E  c #9F2201",
"W  c #A82201",
"Q  c #BC2601",
"!  c #843B3B",
"~  c #842828",
"^  c #C40100",
"/  c #CB0200",
"(  c #C20B00",
")  c #CB0B00",
"_  c #D50300",
"`  c #DC0100",
"'  c #D40B00",
"]  c #DB0C00",
"[  c #C31100",
"{  c #CB1300",
"}  c #C31A00",
"|  c #CC1D01",
" . c #D41400",
".. c #DC1400",
"X. c #D31B00",
"o. c #DC1B00",
"O. c #E50000",
"+. c #E20100",
"@. c #EB0000",
"#. c #E30B00",
"$. c #EC0B00",
"%. c #F40200",
"&. c #FC0200",
"*. c #F30B00",
"=. c #FA0C00",
"-. c #E31200",
";. c #ED1300",
":. c #E41B00",
">. c #EC1A00",
",. c #F41400",
"<. c #FC1500",
"1. c #F31D00",
"2. c #FC1C00",
"3. c #C42401",
"4. c #CB2300",
"5. c #D22401",
"6. c #DB2500",
"7. c #DC2B00",
"8. c #D72F00",
"9. c #CA3A00",
"0. c #D83200",
"q. c #E42300",
"w. c #EB2400",
"e. c #E42D00",
"r. c #EB2A00",
"t. c #F42300",
"y. c #FC2500",
"u. c #F32C00",
"i. c #FD2B00",
"p. c #E33400",
"a. c #EA3600",
"s. c #F43400",
"d. c #FE3300",
"f. c #F33900",
"g. c #FC3B00",
"h. c #DD4700",
"j. c #DA5700",
"k. c #E64700",
"l. c #F44300",
"z. c #FE4400",
"x. c #F54D00",
"c. c #FE4B00",
"v. c #FE5300",
"b. c #F65B00",
"n. c #FE5D00",
"m. c #F45500",
"M. c #EB5500",
"N. c #EF6D00",
"B. c #FD6400",
"V. c #FE6C00",
"C. c #F36200",
"Z. c #FC7200",
"A. c #FE7B00",
"S. c #F77D00",
"D. c #E97500",
"F. c #884545",
"G. c #835454",
"H. c #835A5A",
"J. c #8D5F5F",
"K. c #945555",
"L. c #904848",
"P. c #A15F5F",
"I. c #8C6363",
"U. c #956565",
"Y. c #9E7676",
"T. c #967777",
"R. c #A86B67",
"E. c #FF8300",
"W. c #FF8B00",
"Q. c #F68D00",
"!. c #FF9400",
"~. c #FF9C00",
"^. c #FFA400",
"/. c #FFAC00",
"(. c #FFB400",
"). c #FFBA00",
"_. c #FFBD1C",
"`. c #FFC400",
"'. c #FFCB00",
"]. c #FFD300",
"[. c #FFDB00",
"{. c #FFDF1C",
"}. c #FFE400",
"|. c #FFEF00",
" X c #FFF300",
".X c #FFFC00",
"XX c #FFEF1C",
"oX c #FFFA1C",
"OX c #FFC033",
"+X c #FFCD26",
"@X c #FFFB39",
"#X c #FFE63F",
"$X c #FFBC4F",
"%X c #FFDB4C",
"&X c #FFFE4C",
"*X c #FFE350",
"=X c #FFFF65",
"-X c #FFE17F",
";X c #FFFF72",
":X c #9D8080",
">X c #A48383",
",X c #B59393",
"<X c #FFFF8B",
"1X c #FFFF98",
"2X c #FFFAA5",
"3X c #FFFFC5",
/* pixels */
"                                                                                                                                ",
"                                                                                                                                ",
"                                * % o o # # # , O , O , , O , $ i p R.                                                          ",
"                          @ = $ $ $ < , 4 4 z 4 $ $ 5 , 4 < , $ < $ , , $ e                                                     ",
"                      l @ # $ $ < 4 5 b n A S 5 M x x b 5 x 4 5 4 5 5 5 4 , # !                                                 ",
"                    > o < # , z n A b ^ G ( H _ H / ^ S b n b b b x 4 z 4 < , $ w                                               ",
"                ; O $ 4 < z S ) K ( ..G A _ ' K / _ _ / H / n A n A x , x 4 , < < $ R.                                          ",
"              + $ , , < b A b b M n x x M 4 z z z z F #._ _ ] / G A x 5 4 x 5 < 5 5 , 3                                         ",
"            ; # $ 4 5 n M b 5 6 < < , < < 5 5 5 z 5 z A ` / / ` ^ / A n z , b x 5 , < , , r                                     ",
"          s O < z x b < M 2 , , , < $ # $ $ $ < , 5 , , 5 x D %.O._ ` A A S A z 5 z 4 , # $ i                                   ",
"        H.# $ < 4 < < , $ , # # O # o # X # $ $ < O 4 < , , 5 n #.^ +.` ` H S A z x 5 $ 5 < , $ i                               ",
"        i $ 4 z < $ $ # # d   % X O X o # o O O O O X # $ O 4 z z D 8.&.p._ _ ` A A z z 4 4 5 < # #                             ",
"      H.# , < $ # O o :       y o O o # o o o O o , # O $ O O $ 4 5 c { 7.` O.^ G S S b 4 4 < , , < !                           ",
"      # , 5 $ # # %       = o o # , $ < < z 4 4 x < , , O , O o , $ 4 5 Z R ;.@.` +.b S b z < < 4 < $                           ",
"    t $ $ # O o k       : # , # 4 4 5 z x v x v z b b 5 x z 5 $ , , o 6 z x a.f.:.^ ` ^ b x 5 z 4 < , w                         ",
"    $ < O O =       o $ $ $ 5 4 5 5 x M D A { K n ^ ] [ A n z v 5 4 , $ < 5 x ^ ^ ` O.O.A x n z 4 4 4 , a                       ",
"  d $ # X :X      t # < $ 5 z 5 b n S v Y D F #.) ;._ @.:.' A n b 4 , , o $ < b ] -.] @./ G b b 5 5 , $ $ K.                    ",
"  O O O       Y.o $ , 4 5 5 x z b A F M c n F D Z J o.t.] 2.#.+.K S 4 5 O O < 5 A  ...1.O._ z b x x , $ 7 <                     ",
"  - &         % # $ , 4 5 4 b z 7 2 5 4 4 c < x c c c m ] X.V.<.y.` A n 5 < O $ 5 A ` e.&.` ` n x z z < N , K.                  ",
"  j         % # # , 4 4 < x 7 < < $ # # $ $ < , 5 < z v L } ..g.i.r.$.S b , $ # # 5 ` @.c.@.S H n x 5 4 < c <                   ",
"o         I.# # $ z 5 , , , $ , # # O , # , 5 b 5 b z M m I Z X.p.d.m./ S x 4 $ < x S ^ x.&.` _ A x x 4 4 , 2                   ",
"          e $ $ < 4 < $ , # o # O O 4 z x x G A P K ' K A m D ' X.Z.z.k./ A z , # 4 A / *.r.-.+.A A 5 x 4 7 , L.                ",
"        j O , , 4 4 , , O # o o # 5 L m J  .o.{ ,...y.' K  .x m Y 1.V.!.>.R D z # # 5 b @.V.n.@.A n x z 5 C < <                 ",
"        O # , 4 4 , # O o O O x M P D  .o.,.l.-.d.v.2.i.t.;.J R R R i.E.~.k.L b # $ , n +.f.Z.` ` S z b z < 0 ,                 ",
"      O O $ < 5 < $ O # X 6 Z P P P ) ' u.l.z.y.E.B.v.c.z.y.#.R U } 6.b.(.s.0.c < O , n ^ u.Q.%.^ G b x x < 7 <                 ",
"      # # # 4 , $ $ O o # 5 C x 5 K ( r.-.c.'.(./.(./.E.c.B.y.d.>...r.>.^.z.A 4 < # # 5 S #.m.s.` G b n x v 4 2                 ",
"      O $ $ < , # X X O 5 m 5 7 F -.h.b.~.}..X X[. X X X`.V.u.i.q.3.y.7./.j...x x # , 4 H #.E.<.@.^ S A b 4 c < a               ",
"    O # # , $ $ k @ O 9 5 b z L ^ ] v.)./.W.A.z.>.n.n.(. X'.B.v.t.o.t.d. XA.q.A m O $ x 5 %.E.f.t./ / b S 5 B < 4               ",
"    O O $ $ O   :Xo c 6 5 4 L M / c.~.V.b.2.6.s.r.<.,.E.%X1X}.z.y.:.d.,.'.E.$.n < O O 4 H *.c.z.i._ b H G 5 5 7 ,               ",
"    o # $ !     > 6 7 z 4 C m / -.c.!.g.k.5.7.U 5.6...!./.2XoXB.c.6.5.B.}.W.| F , # , b ( *.m.A.<.=.^ S 5 n 5 5 ,               ",
"    % # $     G.o 7 v < z L K [ <.].V.q.f.r.3.E B M Y *.W.2X*Xc.i.d.z.B./.E.C M & $ , v ' ] x.c.;._ ^ A G z 7 5 ,               ",
"    ,X$ h     O 0 1 z < 4 z U ;.n.B.B.r.q.Q I Z T  . .i.d.-X&XB.f.c.n.V.~.x. .D # O , 6 H w.~.~.1.O.G A n z c 7 U.              ",
"      g       O N z 4 , x m U +.z.W.N.>.3.I c 1 $ 6 5.y.g.;X$X6.g.c.+X@X/.a.n M & $ $ D T >.A.B.<.+.^ b b b 7 ,                 ",
"            - $ $ , , 4 < 4 ( >.r.^.A.X.U 7 c $ # 5 U 1.E.=X(.d.d.`.3X_.Z.<.J S 3 # 5 D 4.E.V.!.w.&.H n x 5 c 4                 ",
"            X 6 2 4 , 4 5 z U { z.A.w.R 4.z # < $ 5 R ] v.@Xn.8.B.%X<X{.c...G z 5 5 5 T M.e.(.z.<.+.S x x z 7 4                 ",
"          H.o 2 , < 4 4 4 z { [ e.Z.:.e.U v , # $ 4 7.( A.[.g.i.V.%X&X(.i.v.( H K B W Q p.~.^.$.1.^ S x F v 4 ~                 ",
"          y # < , , z 4 < b K K *.S.6.7.P 4 , # $ < Q { Q.}.0.i.D.OXXX[.z.$.$. .L Z R { z.^.g.*.] ^ A n Z z 5                   ",
"          + O 6 , , < 4 5 x X.' :.n.p.e.Z 5 5 # # $ m >.E.!.b...=.`.+X).(.n.q.Q 3.E W l.^.W.=.u.` / b b z 5 ,                   ",
"          . # 7 , < , 4 5 x A F 6.7.;.3.P 5 4 O # , c { b.n.d. .*.C.!.[.~.E.g.,.X.r./.A.(.d.2.) ` n b x c 4 4                   ",
"          = 1 < , < , < , z D K } l.g.( A v 4 $ < , v ' C.s.w.} { -.c.Z.!.'.`.).i.v.|.y.v.g.' / A ( v N < < R.                  ",
"          . 1 4 < < 4 , < < D J *.y.C.y.( m , 4 # 1 , 4.g.E.a.U { { 2.i.W.`.E.(.^.~.v.v.v.&.@.H ) M x v 7 4                     ",
"          X & $ < $ < 5 < < n x F _ 9.r...x x , $ # , V h.b.z.R F b #._ <.A.c.A.z.B.i.u.<./ / m C 5 4 7 7 q                     ",
"          = o < $ 4 4 < 4 4 4 n F / ` g.( v z < $ # , < h.a.c.Y z n m R { t.<.v.g.d.<. .] / b Z x Z 7 6 9 L.                    ",
"          % & < < , , < , 5 5 5 b P ` #.s.( n < < O # 5 0 h.V.u.m v c } T F ..#.:.( 4.( ^ c U z m c 7 5 g                   u   ",
"          Y.o & , , < , , $ < n D D ^ ) >.] K 5 , , < # N [ z.g.R P v M L J 1.' ' J K L b v v m N < $ &                   ; >X  ",
"            o O , O , < < , # z b L n / w.f.F n 5 $ o $ 2 V 9.x.w.P 5 < 7 c Z T Z M M z v N m 7 < $ #                 : @ o     ",
"            y # $ # # $ < 4 4 $ v D v A n u.1.S 4 < $ # o 7 B 4.g.] A A z 2 < m c c c N v , & , $ p                 u o # G.    ",
"              O , # , # , , , , 5 L z 5 F ( i.] n 4 , $ $ & 5 c K a...F z v < $ $ # , , # # , # h                 t o O #       ",
"              s # # O $ , $ < < 4 4 x z F G ( *.^ b 4 5 < # 4 7 Z  .#.K F , , < O #       G.f               3 i O # # O d       ",
"                * # O O # $ $ $ , 9 < , 7 b b  .#.S b 4 x , # 1 1 L [ *.S n 4 4 # o e 3               * ; o # O X O # d         ",
"                  % O , # , < , $ < 6 5 4 z M [ ) ( G 4 4 4 # # < $ C L [ ^ D 4 $ < < # # F.$ # f % # o o O # # $ # t           ",
"                  s # O o $ $ , , , , 1 $ 4 4 A F / H n z 4 , O 1 , 2 z L ' F D z v 5 5 < # , # $ # $ # # # # $ $ u             ",
"                    p # # # , , $ $ , < < # x , b H F ^ n < 4 , 1 # , # 5 2 H n b m v v z z z v 5 < 4 4 $ < , $ u               ",
"                      - o o # O # O < 2 $ c 4 < 5 x J / _ x 5 4 # $ # # & & < v F n x D z T x z x 4 < z < , # :                 ",
"                        * O O $ # $ , , $ 6 7 6 < 5 x G / / / S b , 1 $ O O $ # # 6 n 7 4 v v 5 z z z < # # j                   ",
"                          I.$ o O , # # $ , , 6 # 4 < 4 n S b A n b , 4 , # O O # O $ , $ # 4 # # # $ O h                       ",
"                              g X O $ $ # , < 5 4 1 4 z x b A b G S z z x 5 # , $ O o o o X O o # o @ T.            + T.        ",
"                                T.. # # # # # $ < < < $ 5 x 4 5 4 S b S A x z 5 $ , , , < o o X               * + # o           ",
"                                    - O $ O # , # & 6 $ $ $ z z z b S n A S n b n z < 4 , o $ # # o o - O X O O O o             ",
"                                        U.* o o # # O 1 1 4 $ # < , $ 4 z 4 4 n S b z 5 n 5 b 4 < , 4 $ O O # a                 ",
"                                              k o X o # 1 # $ $ $ # , $ $ < 5 , < 5 , $ , , 5 4 # < $ $ o r                     ",
"                                                    I.f o % X $ o O o O O O , $ , $ # O # o $ $ # o f   ,X                      ",
"                                                              j O X # o o $ O O O # # O # O O J.                                ",
"                                                                                  Y.I.I.                                        "
};
