/* XPM */
static char *_9a8f52271d94d3bdc4a7f1287156e50oe69jXiLxKU0nk2U[] = {
/* columns rows colors chars-per-pixel */
"47 64 168 2 ",
"   c None",
".  c #010101",
"X  c #0C0202",
"o  c #080807",
"O  c #0B0A0B",
"+  c #120303",
"@  c #1D0202",
"#  c #100F0E",
"$  c #1D0909",
"%  c #11100F",
"&  c #0F0F10",
"*  c #131313",
"=  c #181716",
"-  c #191817",
";  c #151718",
":  c #181718",
">  c #171A1B",
",  c #1C1B1C",
"<  c #250505",
"1  c #2D0606",
"2  c #210C0C",
"3  c #2C0D0D",
"4  c #330404",
"5  c #380404",
"6  c #340C0C",
"7  c #201F1E",
"8  c #2A1D1F",
"9  c #351315",
"0  c #3C1213",
"q  c #36191B",
"w  c #201F21",
"e  c #1E2122",
"r  c #242324",
"t  c #282727",
"y  c #2A2927",
"u  c #222629",
"i  c #282629",
"p  c #262A2C",
"a  c #2D2C2B",
"s  c #352424",
"d  c #322D2F",
"f  c #33322F",
"g  c #2A2F32",
"h  c #312F32",
"j  c #343233",
"k  c #393534",
"l  c #3B3936",
"z  c #303538",
"x  c #383539",
"c  c #33393C",
"v  c #3C3A3B",
"b  c #450505",
"n  c #4F0606",
"m  c #440A0A",
"M  c #550606",
"N  c #5C0707",
"B  c #570F0F",
"V  c #5E0A0A",
"C  c #471414",
"Z  c #561919",
"A  c #5C1B1B",
"S  c #630E0E",
"D  c #6A0E0E",
"F  c #6C1D1D",
"G  c #631819",
"H  c #751414",
"J  c #7A1414",
"K  c #7E1817",
"L  c #731C1C",
"P  c #7A1B1B",
"I  c #512025",
"U  c #413F3D",
"Y  c #6E2625",
"T  c #762423",
"R  c #742827",
"E  c #7E2728",
"W  c #722C2B",
"Q  c #6B2B31",
"!  c #6D3D3C",
"~  c #42403E",
"^  c #5E403E",
"/  c #66403E",
"(  c #3E3C41",
")  c #373D41",
"_  c #423F43",
"`  c #3D4448",
"'  c #3F4345",
"]  c #444245",
"[  c #494644",
"{  c #40474B",
"}  c #484449",
"|  c #4E4A4C",
" . c #4C4946",
".. c #514C4C",
"X. c #54514E",
"o. c #5C524F",
"O. c #454E52",
"+. c #4F4C51",
"@. c #514D53",
"#. c #495156",
"$. c #555155",
"%. c #595652",
"&. c #5D5A57",
"*. c #56555A",
"=. c #58545A",
"-. c #50595E",
";. c #5C585E",
":. c #644441",
">. c #66474D",
",. c #625E5D",
"<. c #6E5354",
"1. c #7F5155",
"2. c #64605F",
"3. c #565F64",
"4. c #635E65",
"5. c #586368",
"6. c #656161",
"7. c #696566",
"8. c #65656B",
"9. c #6A666A",
"0. c #6E696B",
"q. c #706C6F",
"w. c #616C72",
"e. c #736E74",
"r. c #7C6F77",
"t. c #647077",
"y. c #6C787F",
"u. c #6B777E",
"i. c #777277",
"p. c #77727A",
"a. c #7B757C",
"s. c #7D787F",
"d. c #801414",
"f. c #831F1F",
"g. c #822223",
"h. c #8E2222",
"j. c #972727",
"k. c #902A2A",
"l. c #9B2D2D",
"z. c #852E34",
"x. c #9F2C30",
"c. c #A0363B",
"v. c #AD454F",
"b. c #A1535A",
"n. c #9C5D66",
"m. c #8B757E",
"M. c #AB6C77",
"N. c #A2707A",
"B. c #C54952",
"V. c #C65660",
"C. c #C6606B",
"Z. c #7D7780",
"A. c #7E7981",
"S. c #707D84",
"D. c #837D86",
"F. c #8C7B84",
"G. c #967680",
"H. c #75838A",
"J. c #79828A",
"K. c #7F8E96",
"L. c #84828B",
"P. c #828C94",
"I. c #8D919A",
"U. c #8B9AA3",
"Y. c #9098A1",
"T. c #97A5AE",
"R. c #98A6B0",
"E. c #9AACB5",
/* pixels */
"                                                                                              ",
"                                                                                              ",
"                                                                                              ",
"                        . .                                                                   ",
"                      p ) c u                                                                 ",
"                    . ) S.t.z .                                                               ",
"                  . . ` K.H.c .                                                               ",
"                  . . ` K.H.c .                                                               ",
"                  . . ` K.H.c . .                                                             ",
"                  . . ` K.H.c . . . . . . . . . .                                             ",
"                  . . ` P.H.c . . . . . . . . . . .                                           ",
"                  . . ` K.H.c . + 1 1 6 1 1 1 1 1 <                                           ",
"                  . . ` K.H.c X 6 V S S S S S S S m @ . . .                                   ",
"                  . . ` K.H.c X m J K J d.d.d.d.d.G 0 2 X . .                                 ",
"                  . . ` K.H.c X m J d.d.d.d.d.d.d.g.z.Q 9 . .                                 ",
"                  o o { K.H.c X m J d.d.d.d.d.d.d.x.B.v.I . .                                 ",
"                O a ( w.U.S.c X m J d.d.d.d.d.d.d.x.B.v.I . .                                 ",
"              . & _ e.L.Y.H.c X m J d.d.d.d.d.d.J x.B.v.I . .                                 ",
"              . & } D.I.E.H.) X 0 Y Y T R R T P K x.B.v.I . .                                 ",
"              . & } Z.I.R.H.c o s ! ../ :.:.:.W K x.B.v.I . . .                               ",
"              . & } D.I.R.J.c O a X.%.%.%.%.%.! E c.B.v.I . O & *                             ",
"              . & } Z.I.R.S.c o a X.%.%.%.%.<.<.1.b.V.v.I o w _ x ,                           ",
"              . & } D.I.R.H.c o a X.%.%.%.%.%.0.D.N.C.v.I o _ r.=.w .                         ",
"              . & } Z.I.R.H.c o a X.%.%.&.6.0.i.D.G.M.n.>.x =.D.=.w .                         ",
"              . O } A.I.R.H.c o a X.%.%.,.0.A.D.D.F.F.m.a.e.p.D.=.w .                         ",
"              . * } D.I.T.H.c o a X.&.2.7.a.L.D.D.D.D.D.D.D.D.D.=.w .                         ",
"              . O } A.I.T.H.c O a X.2.q.a.A.D.D.D.D.D.L.D.D.D.D.=.w .                         ",
"              . & } D.I.R.H.c o a X.6.q.p.p.p.Z.D.D.D.D.D.D.Z.p.+., .                         ",
"              . & } D.I.T.H.c o a X...] U v ] 4.D.D.D.L.D.D.4.} i & .                         ",
"              . & } A.I.T.H.c o a X.l - o o & } a.D.D.D.D.Z.} * o . .                         ",
"              . & } D.I.T.H.c o a X.l % . . o a | $.$.@.@.@.a o . . .                         ",
"              . & } A.I.T.H.c o a X.l % . . . O - , , , , , & . . . .                         ",
"              . & } A.I.T.H.c O a X.~ i , , : & . . . . . . & : * o .                         ",
"              . & _ D.I.T.H.c o a X.%.@.$.@.+.a o . . . . . i | x * .                         ",
"              . & } A.Y.T.H.c o a X.9.a.D.D.a._ O . . . . o ( p.=.w .                         ",
"              . & } A.I.T.H.c o a X.9.Z.D.D.Z._ O . . . . o ( p.=.w . .                       ",
"              . & } D.I.T.H.c o a X.7.a.D.L.a._ O . . . . o ( p.=.w . . . . . . . . . . .     ",
"              . & } D.I.T.H.c o d X.7.a.D.D.a._ o . . . . o ( p.=.w . + @ @ @ < 3 3 + . .     ",
"              . & _ Z.I.T.H.c O a X.7.a.D.D.a._ O . . . . o ( p.=.w X 1 b b b B L Y 6 . .     ",
"              , p 3.D.I.T.K.O.e j [ $.7.e.a.a._ O . . . . o ( p.=.w + 5 N N N H j.k.C . .     ",
"            u #.w.J.Y.T.R.U.S.3.] t i j } 9.a.] o . . . . o ( p.=.w + 5 N N N H j.k.C . .     ",
"          . p S.E.E.E.E.E.E.E.U.#.o . . , =.a.( O . . . . o ( p.=.7 + 5 N N S H j.k.C . .     ",
"            u O.5.5.5.5.5.5.5.-.g o . . & j } r o . . . . . r ] h * + 5 N N N H j.k.C . .     ",
"              : > > > > > > > : & . . . o O & O . . . . . . O * # . X 5 N N N H j.k.C . .     ",
"              . o * w r r , O . O = 7 w r w i r w w i w i r * . O , w 0 b M N H j.k.C . .     ",
"              . O h ;.;.3.] 7 o 7 l } $.3.=.;.;.4.3.,.=.;.=.h o w ] | s < 5 M H j.k.C . .     ",
"              . * } D.D.F.4.i o d ..7.a.D.D.D.D.D.D.D.D.D.Z.} O i =.4.d X 4 M H j.k.C . .     ",
"              . O } D.D.D.4.a o d X.7.D.D.D.D.D.D.D.D.D.D.Z.] & * a k q 5 b M H j.k.C . .     ",
"              . & } A.D.D.4.g o a X.7.a.L.D.D.D.D.D.D.D.D.D._ O . . + 5 N N N H j.k.C . .     ",
"                O x +.@.@.} h t ~ X.7.a.D.L.L.F.L.D.L.D.D.Z.} O X @ 1 b V D J L F A 0 .       ",
"                  : : , - r k  .X.X.7.a.D.D.L.D.D.D.D.D.D.Z.} O @ 5 n M N K j.T C $ $         ",
"                  . . o % r U %.%.%.7.a.D.D.D.D.D.D.L.F.D.Z.] & < b S S H L g.G 3 .           ",
"                  . . % d ~  .%.%.%.7.a.D.D.D.D.L.D.D.D.D.D._ O @ b S J h.F C 9 $             ",
"                  . . r [ %.%.%.%.%.6.i.a.a.a.a.a.a.a.a.a.e._ O @ b S f.l.A + .               ",
"                  . . r [ %.%.%.%.%...} ] ] ] ] ~ ] ] ] _ _ w o + < 5 C Z 0 +                 ",
"                  . . r [ %.%.%.%.%.l , O O O O O O O O O O o . . . X X + X                   ",
"                    . , f ~  .%.[ v y % . . . . . O : = O . . . . . . . .                     ",
"                      % * r ~ X.j : %         . . = f k = . .                                 ",
"                        . = ~ %.a o .         . . 7 ~  .d : ;                                 ",
"                        . - | 7.j o .         . . 7 ~ $.$.| x O                               ",
"                        . w =.p._ o .           . 7 ~ 2.i.a.] O .                             ",
"                          w =.p.( o             . , ~ 2.e.Z.] O                               ",
"                                                                                              ",
"                                                                                              "
};
