/* XPM */
static char *_90c0dab7bd5443eb004d23546aa287auOorrjzDIepmrDJK[] = {
/* columns rows colors chars-per-pixel */
"56 64 154 2 ",
"   c None",
".  c #392121",
"X  c #392921",
"o  c #3B3322",
"O  c #3C3A22",
"+  c #412424",
"@  c #4A2727",
"#  c #4C2728",
"$  c #442E2E",
"%  c #4D2829",
"&  c #522A2A",
"*  c #5A2C2C",
"=  c #4A3030",
"-  c #563333",
";  c #612F2F",
":  c #632F30",
">  c #663131",
",  c #6C3233",
"<  c #6C3839",
"1  c #673B36",
"2  c #733435",
"3  c #783637",
"4  c #7B3738",
"5  c #7C393A",
"6  c #3E4423",
"7  c #3F4C23",
"8  c #3F5023",
"9  c #52422A",
"0  c #405624",
"q  c #415824",
"w  c #4B5E27",
"e  c #6C453D",
"r  c #436524",
"t  c #446C25",
"y  c #457325",
"u  c #467D26",
"i  c #6D3F40",
"p  c #755749",
"a  c #765A4B",
"s  c #725246",
"d  c #7D5E5F",
"f  c #766666",
"g  c #7C6262",
"h  c #82393B",
"j  c #8D3D3E",
"k  c #8F3F41",
"l  c #933F41",
"z  c #874546",
"x  c #954142",
"c  c #9B4244",
"v  c #9F4749",
"b  c #984A4B",
"n  c #9B514C",
"m  c #9D4F50",
"M  c #895758",
"N  c #8E5354",
"B  c #9B595B",
"V  c #A24446",
"C  c #A64648",
"Z  c #AA4748",
"A  c #A44A4B",
"S  c #AC4A4B",
"D  c #B34A4C",
"F  c #BB4D4F",
"G  c #A64F51",
"H  c #BD4F50",
"J  c #A95452",
"K  c #AA5759",
"L  c #A95957",
"P  c #B45150",
"I  c #BE5554",
"U  c #B05B55",
"Y  c #AE6057",
"T  c #A7695B",
"R  c #B46C5F",
"E  c #BB615A",
"W  c #995F60",
"Q  c #AB5E60",
"!  c #966667",
"~  c #8D7D7D",
"^  c #907E7E",
"/  c #927677",
"(  c #AE6061",
")  c #B16466",
"_  c #B26668",
"`  c #AD7563",
"'  c #B97665",
"]  c #BA7867",
"[  c #BF7968",
"{  c #B77363",
"}  c #AE7778",
"|  c #B77173",
" . c #C15C58",
".. c #C4655E",
"X. c #C3685F",
"o. c #C96760",
"O. c #C56E63",
"+. c #C87567",
"@. c #C97F6D",
"#. c #478326",
"$. c #4A9227",
"%. c #B88C72",
"&. c #BE987A",
"*. c #CC816F",
"=. c #C98973",
"-. c #D78875",
";. c #DA8D78",
":. c #C59076",
">. c #CF967B",
",. c #C19E7E",
"<. c #CB9B7D",
"1. c #D3967C",
"2. c #BE7E80",
"3. c #8F8282",
"4. c #A18889",
"5. c #B28687",
"6. c #B98384",
"7. c #B78F90",
"8. c #B89393",
"9. c #BBA3A4",
"0. c #BFB2B2",
"q. c #C28687",
"w. c #DE9C81",
"e. c #C49394",
"r. c #CA9596",
"t. c #CB999A",
"y. c #E29B81",
"u. c #CEA181",
"i. c #D5A685",
"p. c #DCB68F",
"a. c #DDBC93",
"s. c #E0A386",
"d. c #E3B28F",
"f. c #E6BA93",
"g. c #F2BD97",
"h. c #D2A6A7",
"j. c #D5ADAE",
"k. c #C1BABA",
"l. c #CFBABA",
"z. c #E9C49A",
"x. c #EEC99D",
"c. c #F5C59C",
"v. c #F7CCA1",
"b. c #FBCEA2",
"n. c #FBD4A5",
"m. c #FFD7A8",
"M. c #DFBFC0",
"N. c #D6CCCC",
"B. c #DAD5D5",
"V. c #E0D7D8",
"C. c #EDDCDC",
"Z. c #E8D6D7",
"A. c #F3E8E8",
"S. c #F9F3F3",
/* pixels */
"                                                                                                                ",
"                                                                                                                ",
"                                                                                                                ",
"                                                                                                                ",
"                                                                                                                ",
"                                                                                                                ",
"                                                                                                                ",
"                                                                                                                ",
"                                                                                                                ",
"                                                                                                                ",
"                                                                                                                ",
"                            . . . . . . . . . . . . . . . . . . . . . . . . . . . . . . .                       ",
"                          . . . + # # # # # # # # % % & # & & # & & & % & & & & & & & & & @                     ",
"                        . . . # ; 3 3 2 2 2 3 4 2 2 4 5 4 k k 3 h h h h h h h h h h h h 4 : +                   ",
"                      . . . . * 4 l V l l l l l l l C S D D D D D D D D D D D D D D D D c , + .                 ",
"                    O 6 O o . * h V V V V C V C C V C D D F F F F F F D D D D D D D D F C 2 + .                 ",
"                  X 7 t r 6 X * 5 c c V V c V V V V C Z Z D F F F F D Z Z Z Z Z Z Z D F V 2 + .                 ",
"                . X 8 #.#.8 X * h V C G G v c c v A v V C D F F D D Z Z V V V V V V Z D j , + .                 ",
"                . X 8 #.#.r X * 5 A _ q.6.W 5 N } e.| B C D F Z l j j Z Z Z D Z Z Z j j 4 * + .                 ",
"                . o 8 #.#.8 X * h A q.M.l./ - g 9.Z.t.Q C Z F l 2 * h V F D D D D D j > % + . .                 ",
"                . X 6 y y 6 X * 5 G r.C.B.3.$ f k.S.j.) Z Z F l 2 & h Z F F F F  .D j : # + . .                 ",
"                . . O 7 7 O . * 5 G r.C.B.3.$ f k.S.j.) C D F Z j j c D F F F F F D V j 3 * + .                 ",
"                . . . X X X . * h G r.C.B.3.$ f 0.S.j.) V D F F F D D D  .D F F F F F D j 3 + .                 ",
"                  . . . X o 6 9 1 z 7.C.B.3.$ f M.S.j.) Z Z F F F F F F F F F F F F F  .V , + .                 ",
"                    . . o 7 y w 9 > 4.B.B.3.o f k.S.l.Q C Z F F F F F F F F F F F  .F F V 2 + .                 ",
"                      . O r $.y 0 $ 2.N.k.2.= f k.A.h._ C Z F F F F F F F F F F F F F F V 2 + .                 ",
"                      . O r $.y 9 X f 4.e.! < M 5.h.2.Q C D F F F F F F F F F F F F F F V 2 + .                 ",
"                      . O r $.y 6 . i W Q m l v Q Q K v C D D F F F F F F F F F F F F F V 2 + .                 ",
"                      . o q #.r 6 . : k l V V l l C l C C Z D F F F D Z Z V V V V C V V j , . .                 ",
"                      . X 6 8 6 o . : k V V V V V V V V C Z Z D D D c h h 2 2 2 2 2 2 2 , & . .                 ",
"                      . . . X . . + : k V V V V V l C V V l Z Z D D h * + + + + + + + + . . . .                 ",
"                      . . . . + = ; 3 l V C C C Z Z Z Z Z Z Z V c j 2 # . . . . . . . . . . .                   ",
"                      . . . . # , h j l V Z Z D D D D D D D D c h * *                                           ",
"                      . . . . * h V V V V D F F F F F F F F  .j : . .                                           ",
"                        . . . * h c V V V D  .D F F F F  .D F j : . .                                           ",
"                          . . * h c V V V D  . .F F F F F F  .x : . .                                           ",
"                          . . * h V Z Z U E ..+. .o.o.o.+.o.o.n 1 . .                                           ",
"                          . . * h V U O.=.1.;.1.;.;.g.;.1.1.;.*.e . .                                           ",
"                          . . * h C { <.p.z.b.b.b.b.c.b.b.b.b.&.p . .                                           ",
"                          * ; 4 j C ' <.a.x.n.m.m.m.m.m.m.m.m.,.a . .                                           ",
"                  . . . & 2 j j c A { <.z.x.n.m.m.m.m.m.m.m.m.,.a . .                                           ",
"                . . . + * h D D C A %.i.p.x.n.m.m.m.m.m.m.m.m.,.a . .                                           ",
"                . . & , 5 j D Z C A ' <.z.x.m.m.m.m.m.m.m.m.m.,.a . .                                           ",
"                . . , j C C C V V C ' <.a.x.n.m.m.m.m.n.m.m.m.8.a . .                                           ",
"                . + , j V V V V c A R :.<.p.f.c.v.v.n.n.v.c.g.%.s . .                                           ",
"                    ; , 3 j c V V A J R *.*.;.;.d.z.z.z.f.s.;.T e . .                                           ",
"                      + & 2 x V V V V A S P  .+.>.a.a.a.i.*. .c ; . .                                           ",
"                      . @ > 3 j l V C C Z D F ..@.>.>.1.=.O.I l * . .                                           ",
"                          & * , j l Z Z F F F  . .O.O.O... .H l ; . .                                           ",
"                          . . * h V Z F F D D D D D F H F H F l ; . .                                           ",
"                          . . * h V Z D Z l j h h h l C Z F H l ; . .                                           ",
"                          . . * h C Z F Z h * & & * 3 l Z D F l * . .                                           ",
"                          . . & 2 j l c l , + . . . * h l l V h ; .                                             ",
"                          . . + * : , 2 , *   . . . % * > 2 2 , &                                               ",
"                          . . . . + + + +       . . . + + + + .                                                 ",
"                            . . . . . . .         . . . . . .                                                   ",
"                                                                                                                ",
"                                                                                                                ",
"                                                                                                                ",
"                                                                                                                ",
"                                                                                                                ",
"                                                                                                                ",
"                                                                                                                ",
"                                                                                                                "
};
