/* XPM */
static char *_8b16eb3749341489de695b56b6e59f0lz02hmVPQjHTHgnF[] = {
/* columns rows colors chars-per-pixel */
"64 64 246 2 ",
"   c None",
".  c #0A161A",
"X  c #0A171B",
"o  c #12191B",
"O  c #0A1D23",
"+  c #071C23",
"@  c #121D20",
"#  c #0C2126",
"$  c #0A242B",
"%  c #0D282E",
"&  c #07222C",
"*  c #122529",
"=  c #152B2C",
"-  c #0B2C34",
";  c #0A2E3A",
":  c #082835",
">  c #112D33",
",  c #1C2E34",
"<  c #0C323B",
"1  c #0F3137",
"2  c #133135",
"3  c #12353B",
"4  c #193839",
"5  c #263A3A",
"6  c #292F31",
"7  c #2B483C",
"8  c #344D3B",
"9  c #0B3642",
"0  c #0D3A44",
"q  c #0C3D4B",
"w  c #073549",
"e  c #133C44",
"r  c #143C45",
"t  c #093B53",
"y  c #072E41",
"u  c #2B3D42",
"i  c #303D42",
"p  c #0E424D",
"a  c #13434C",
"s  c #1A4649",
"d  c #0D4555",
"f  c #0E4956",
"g  c #0C4B5C",
"h  c #0B455A",
"j  c #124753",
"k  c #134A54",
"l  c #124D5B",
"z  c #1A4B56",
"x  c #14535D",
"c  c #1B5559",
"v  c #254946",
"b  c #354448",
"n  c #29544B",
"m  c #365A4A",
"M  c #264C54",
"N  c #394E53",
"B  c #235A5B",
"V  c #265755",
"C  c #39555A",
"Z  c #2B655E",
"A  c #376657",
"S  c #0C4B62",
"D  c #0B4969",
"F  c #134B61",
"G  c #0E5264",
"H  c #0D536C",
"J  c #0E5A6D",
"K  c #135562",
"L  c #145865",
"P  c #135B6B",
"I  c #1A5A66",
"U  c #0D5A73",
"Y  c #0D5576",
"T  c #125D74",
"R  c #265863",
"E  c #1A636B",
"W  c #0E6378",
"Q  c #136476",
"!  c #13647B",
"~  c #146B7C",
"^  c #1A6775",
"/  c #1D737A",
"(  c #0E616F",
")  c #236363",
"_  c #286868",
"`  c #356967",
"'  c #28746C",
"]  c #38796A",
"[  c #266A77",
"{  c #376A75",
"}  c #28767A",
"|  c #317878",
" . c #44555A",
".. c #4D5550",
"X. c #456759",
"o. c #457559",
"O. c #487053",
"+. c #485D62",
"@. c #545E62",
"#. c #44656A",
"$. c #497B68",
"%. c #477378",
"&. c #536C6B",
"*. c #667579",
"=. c #72797B",
"-. c #19877B",
";. c #398675",
":. c #3E9278",
">. c #37826F",
",. c #17A378",
"<. c #4E855D",
"1. c #48856C",
"2. c #468774",
"3. c #4A967A",
"4. c #589679",
"5. c #4F876D",
"6. c #69A577",
"7. c #66986F",
"8. c #819473",
"9. c #0D5C8D",
"0. c #125D81",
"q. c #146C82",
"w. c #146785",
"e. c #137384",
"r. c #177889",
"t. c #157996",
"y. c #0F6891",
"u. c #267D88",
"i. c #277F97",
"p. c #2A7085",
"a. c #1276A4",
"s. c #137FB0",
"d. c #457B8E",
"f. c #6D7E82",
"g. c #188698",
"h. c #1B8E96",
"j. c #27888A",
"k. c #378887",
"l. c #399589",
"z. c #268B97",
"x. c #2A999A",
"c. c #359996",
"v. c #3D8E99",
"b. c #36A69B",
"n. c #1A8AA5",
"m. c #1A96A7",
"M. c #1996B4",
"N. c #148BB3",
"B. c #2799A7",
"V. c #2E92AD",
"C. c #1AA9B2",
"Z. c #25A6B9",
"A. c #34B0AF",
"S. c #4C8888",
"D. c #479888",
"F. c #559A84",
"G. c #469B98",
"H. c #528B95",
"J. c #658486",
"K. c #76868A",
"L. c #689889",
"P. c #699892",
"I. c #4BA48A",
"U. c #5DAA99",
"Y. c #4CAC91",
"T. c #6CB89A",
"R. c #71AD91",
"E. c #489AAF",
"W. c #719AA7",
"Q. c #44A5A7",
"!. c #58A7A5",
"~. c #57B9A9",
"^. c #44B8BA",
"/. c #4EB4AD",
"(. c #64BAA8",
"). c #6FB0AC",
"_. c #3DCEB5",
"`. c #5FC59A",
"'. c #6CC59D",
"]. c #59C6BC",
"[. c #52C1AD",
"{. c #66C7AB",
"}. c #75C8A8",
"|. c #78C9B5",
" X c #70D6B8",
".X c #7AE8B7",
"XX c #1A99C3",
"oX c #26A9C6",
"OX c #2EB6CA",
"+X c #2197CC",
"@X c #4EBCCB",
"#X c #75BAC8",
"$X c #33D0D5",
"%X c #2AD7FB",
"&X c #2FE7EE",
"*X c #2ED5D4",
"=X c #5AD7DC",
"-X c #51CCD0",
";X c #64C8CB",
":X c #77DAC8",
">X c #73D1CE",
",X c #6DE9D1",
"<X c #59D8E9",
"1X c #6CD8E1",
"2X c #50ECED",
"3X c #73EAEA",
"4X c #869295",
"5X c #8BB797",
"6X c #8CB1AC",
"7X c #A6B0AB",
"8X c #889EA2",
"9X c #88C5BC",
"0X c #91D3B0",
"qX c #A5CFAC",
"wX c #8FE7BB",
"eX c #A6F2AF",
"rX c #A3D895",
"tX c #C4DDA4",
"yX c #8DD4CB",
"uX c #B4D2CF",
"iX c #91E9CF",
"pX c #AFEFCF",
"aX c #98ECEF",
"sX c #96FEF6",
"dX c #87F1ED",
"fX c #A6E6E8",
"gX c #B6FDE9",
"hX c #A7FEFB",
"jX c #B6FCF8",
"kX c #AEEFEB",
"lX c #81D6E4",
"zX c #C1D1CE",
"xX c #C8F3D0",
"cX c #E9FFCF",
"vX c #CCFEFD",
"bX c #C4FCFA",
"nX c #D4FEFD",
"mX c #DCFEFE",
"MX c #D7FEF3",
"NX c #D3F4EB",
"BX c #E3FFFE",
"VX c #EBFFFF",
"CX c #ECFEF4",
"ZX c #F3FFFF",
"AX c #FEFFFF",
"SX c #F8FFF1",
/* pixels */
"                                                                                                                                ",
"                                                                                                                                ",
"                                                                                                                                ",
"                                                                                                                                ",
"                                              zXuXb G b @.                                                                      ",
"                                           .X R ,                                                                               ",
"                                      N l ; 2           @ + i O X O i . O 4X                                                    ",
"                                  v ; < #     6 6 . > & > $ r z < < O e 2 z                                                     ",
"                              f.% ; 1 .     @ O l k 7 A $.5 8 > ; % # # U B.C 3 K.                                              ",
"                          t.  r $ X @.  ..$ * 1 } m 1 1 - : % < 9 - 9 l %X%Xj h C                                               ",
"                          A.j 3 *.    * 7 A 2.A 3 # # - 1 - - < 9 d 9 d w r.4                                                   ",
"                        [ oXq.*     b n ) c n O % 0 - 1 a p L 0 < 9 : f $ K u                                                   ",
"                      V.*X&Xw., =.O <.;.< , - 3 % - s a 3 < L k 0 j 2 E 3 k 3 r                                                 ",
"                    W.OX%X%X+XI g.[.L.n = O p - a k 3 a _ } a E L u.L ` a f F a M                                               ",
"                      #.w.s.r , 7.<.< < 1 $ : 1 ^ g s ] _ G.Q $.l.B C 0 | c.c ` v & N                                           ",
"                    #.r : R 9 v n ` s 1 + f ^ p c j.I.A.:XgXcXiXwX|.wXwXA >.o.5.~.j._ $ C                                       ",
"                  %.; . . F m | 2.n $ # % < c ;.k.Q./.pXe.qX;XA.M.>XqX`.uX;.x.n 4.k.p C % C                                     ",
"                  0 % X . E.5X$.A 9 - 1 L z 3._.{.:X|.4 ) 3.< } _ ' [ ) k.c.$.|.qX5.x |.I O {                                   ",
"                % ; # X O ).6XT.- $ $ 0 _ Q ).qXO.n ; f l 1.< ! < q k s c j ( b.H qXA I.(.E.q.{                                 ",
"                2 e O . = x U.s , % p B Z b.0X] J q W J L D.K S P L a < a 4 V s r [ X.~.rX4.h.c 4X                              ",
"              #.0 # X # * >.1.e > - Q l.t.6XS.9 e.e.W t.N.}.Y m.S ; j y 9 K < c 1 L 0 ' 7XxXk.M > W.                            ",
"              F ~ - o # 2 yXq n : K 0 l.T.L.k J J H H U r.0X9XS.!.5Xj.T p d H p e q a l t.} >X..k X                             ",
"              r - X @ # V tXR.2 a q -X'.$.e.x J H -.~ /.pXvX~.z.U.F.L.P.3.:.y ~ & % 9 ~ ! A. XwXz a b                           ",
"            M ; a X @ * n b.( < - L E |.(.~ U H N.r.j.;XA.pXP.9.[ D -.H.:X{.D.t.g 0 a e q z.e.Z ] a x J.                        ",
"            v T 3 $ @ r o.kXa < 9 r Y.wXq.! S Y j.>X!.i.-XjXsXM.D h.L H.4.>.;.>.Z f ~ - Q e.z.:.wX| - a                         ",
"            ; > 1 + o 0 4 U.A k l w./ ).t.t.w.! |.^.$XZ.iXkX,XA.XXg.y.w.m.A cX] ' h J f < r J r.<.{.f G C                       ",
"          *.e r 0 $ 4 # _ ).I.a d g.} G.e.~ C.A.=X-X$XdXAXVXhX1X$XV.g.C.t E |.pXc./ e.K f h y / / 9Xa g P                       ",
"          . q , - 4 % * c iXe a : e.R.A.e.9.Q s.:XdXBXVXAXZXAXmXyXoX*X( U t P S.!.5X9 g.q d H g.4 I 3.I <                       ",
"          % 9 F < # . v 3.;X2 < p u.^.W.a.m.M./.fXAXMXvXbXCXjXAXAXsXM.&Xn.0.d t.c.j.) j.p ; p p e _ rX#.; +.                    ",
"          Y oXr.; < 3 a n 9XW.$ K e.-XZ.a.q.*X,XmXAXBXvXbXAXVXmXAXAXlX$XoX! t.H wX0X;.K q W c 0 n.p 2.Y.R z                     ",
"          @.K K 1 $ * 1 , eXB.* E / b.uXM.a.>XzXbXnXnXbXAXAXAXAXAXZXZXaX=XV.q < [.>Xx.v.G q p l a 0 _ o.; 0                     ",
"  5         $ Q ; p @ 7 o.SX5X7.3.L.rXNXhXpXgXNXCXAXBXAXAXAXVXAXAXAXBXvXpXpXeXrXxXSXrX~.6.D.o.^.3.f q G.c $ +.                  ",
"  u       N # d k % 1 3 < 7 (.} ) J OXR.1XOX<X3XhXZXhXnXAXZXAXAXmXBXBXdXN.T Y y q.NXU.>.E ( L S P k 1 U.n T 4X                  ",
"  u       X O Q < 2 - - f a b.b.~ t w.#XgX-XXX<XdXAXnXhXZXAXAXAXjXBXsX;XM.Y 9.F g cX3.>.} L a h.q j 4 $.` 2                     ",
"  $ ,     5 # m 0 3 $ 2 3 3 3..X_ D Y D A.=XfX@X=X3XnXVXmXAXAXjXbXgX3XaX<Xa.D Y / pXc 7.c.f h K g ; 5 g.n 2                     ",
"  7X$       # s - p ; < 1 p c pX_ ;.q w.E..X>XaX3X2X1XbXvXnXZXsXbXAX#X).a.A.w Y z.wX`.R.[ d p P K + z I.#.%                     ",
"    $ r      .V m k $ 2 < - 3 `.{.g.t.T ,.V.A.AXfXkXlXnXBXBXVXgX2XNX=XyXw.z ; S ^ ,X;.b.x x.e k l O # #.' 1                     ",
"    u % K.  - # A k n # k 1 v _ x.:Xd.Q U S p.@XyXjXnXmXjXBXyXhXkXMX^.#XoXt t w g.SX:.d g.^ w.9 G ; , ~.5 &                     ",
"    b : X     X 4 5 p 3 0 p - 1 ) =Xi.@.F l k t.C.-XM.&X,XnXsXdXiXgXaXE.! q S g [.).c.'.} x.I ~ 3 O ) P.n `                     ",
"      ; l #   b - % G 1 % 1 1 p a z  X/.R.k u.h w.y.&XOX2XpXvXfXfXA.(.Z.y.y 9 q iX:.;X) p H j 1 k - v L.A                       ",
"      6 $ &     ; v 7 x j - s 4 x } :.B.H.;XA.k.>X!.fX=XsXZXMX=X).{.Q.a.: J J z.(.D.I q d q.l < 3 1 B U.-                       ",
"        b : X   * 5 m h.; - ; M & p c.h.Y.k.!.>XV.r.@X].).CXfXpXV.OXM.9 ; q m.iXiXS.Z Q U > < 2 1 P A A *.                      ",
"          3 + i 8X; v V.I < % 3 1 c r.P 2.|.].c.T.3.,XgXE.fXhX-Xe.q.U ~ q B 0XpXA _ I s j r e 3 c / }.=                         ",
"          _ 1 $ O X %.-X^.J e 0 $ ; - f a k [ Z.h.).J.-X~.6XI f d < - q g E (._ >.L.< d K e ; $ k >.#.K.                        ",
"            J.< # X # H.[ H.] < - q e < E ' e.! E D.H.k.Q 3.f y f ; J ( G.MX' :.n p x E L 2 < - m.2.m                           ",
"              3 : < 1 < d.z.c.c.< L 3 s a J 3 I s q s p Q F.h t P j.S Z ).`.u $.- g.J - * ; ; t.$XA R                           ",
"              K.1 p ; $ + j 4 m F.G $ & - ; G k g y q f d ;.W K B E ].{.$.q n z V ' g 4 > > d 2XbXE.                            ",
"                 .q p e $ # $ p o.8XA k.} q h g U H q G G O.k P.).zXF.V r 4 r l / p - w.l t.$XjX2X+Xi.E.F                       ",
"                    1 l r.; - % < X.V R.~.4.v.F.z.J J t.3 qX:X`.xX3.V ! r - t ^ j 9 O % # x d.dX<X%XP                           ",
"                      *.9 j l e e - / I < _ 4.L.5XW.gX.X XpXF.L.2.j z V.c D u.c 3 @ @ @ % n R.R.V.d.                            ",
"                        +.l % ; 1 p e 3 2.2 s s 2.E o.O.k.6.D.K a M j.2X*X^.l a ; 8X4.* j 2.7 = T K.                            ",
"                            v j 9 x v.< a E s 1 M B c a B 5.K P P z.n.%XoX$ 2 N   4X, ] 8...7X  H.                              ",
"                                M p & ~ l E K - - k p W q x I z r ! a B.l $ +.    % v O.m  .                                    ",
"                                    5 : & % p L j < r.J j H w 0 - 9 * I 5       , v c 4                                         ",
"                                            &.* $ $ % a O % O @ O X =.        { 3 1.J.                                          ",
"                                                        =.. 5 ..          #.3 v ] c                                             ",
"                                                                      +.R A o.A >                                               ",
"                                                                   .A A U.] 5X                                                  ",
"                                                      8X$.R.n 8 v T.4 s &.                                                      ",
"                                                                                                                                ",
"                                                                                                                                ",
"                                                                                                                                ",
"                                                                                                                                ",
"                                                                                                                                "
};
