/* XPM */
static char *bb11bc550bbf480ff2e402669d001b3cXokEWOmIy3bXlK4P[] = {
/* columns rows colors chars-per-pixel */
"76 64 180 2 ",
"   c #6F9925",
".  c #6F9E28",
"X  c #719C26",
"o  c #729F29",
"O  c #6EA123",
"+  c #6DA12B",
"@  c #72A225",
"#  c #79A524",
"$  c #7DAB25",
"%  c #70A028",
"&  c #84AD24",
"*  c #83AF28",
"=  c #86B125",
"-  c #8CB526",
";  c #8FB827",
":  c #8BB52B",
">  c #94BA27",
",  c #9BBF27",
"<  c #94BB28",
"1  c #9ABE28",
"2  c #9DC027",
"3  c #9CC129",
"4  c #A3C527",
"5  c #A9C826",
"6  c #A3C529",
"7  c #ACCB29",
"8  c #B3CF27",
"9  c #B2CF2A",
"0  c #B3D02A",
"q  c #AFCE30",
"w  c #B0CF32",
"e  c #B6D231",
"r  c #B4D238",
"t  c #BFDA54",
"y  c #C2DA4E",
"u  c #C1D950",
"i  c #C7DE5B",
"p  c #C4DD60",
"a  c #C1D96B",
"s  c #C2D970",
"d  c #B9D094",
"f  c #B9D099",
"g  c #BAD2A5",
"h  c #BBD5A9",
"j  c #BFD8AD",
"k  c #C1DAAF",
"l  c #C2DDB2",
"z  c #BDD3DF",
"x  c #BDD3E0",
"c  c #BED8E6",
"v  c #BFDAE9",
"b  c #C0D3DD",
"n  c #C0D6E3",
"m  c #C1D9E6",
"M  c #C4DFEE",
"N  c #C4DEEE",
"B  c #C7DFEF",
"V  c #C6DFED",
"C  c #C2DCEB",
"Z  c #C8DFED",
"A  c #C2DFF1",
"S  c #C2DFF0",
"D  c #C5DFF0",
"F  c #C5E0ED",
"G  c #C5E1EF",
"H  c #C6E0EF",
"J  c #C6E1EE",
"K  c #C9E1EF",
"L  c #C8E2EF",
"P  c #C3E1F1",
"I  c #C2E0F2",
"U  c #C4E0F1",
"Y  c #C4E1F1",
"T  c #C6E1F1",
"R  c #C7E1F1",
"E  c #C7E0F1",
"W  c #C7E2F1",
"Q  c #C4E1F3",
"!  c #C5E2F2",
"~  c #C7E2F2",
"^  c #C7E3F2",
"/  c #C7E3F5",
"(  c #C7E4F5",
")  c #C6E5F6",
"_  c #C7E3F2",
"`  c #C8E1F0",
"'  c #C8E3F2",
"]  c #C8E5F3",
"[  c #CBE7F3",
"{  c #C9E3F4",
"}  c #C8E4F4",
"|  c #C9E4F4",
" . c #C8E5F4",
".. c #C9E4F5",
"X. c #CAE4F5",
"o. c #CAE5F5",
"O. c #CBE5F5",
"+. c #C9E5F7",
"@. c #C9E6F7",
"#. c #CAE7F7",
"$. c #CAE6F6",
"%. c #CCE7F7",
"&. c #C9E6F5",
"*. c #CBE8F7",
"=. c #CAE9F7",
"-. c #CCE8F7",
";. c #CBE8F7",
":. c #C8E6F8",
">. c #C9E7F8",
",. c #CBE7F8",
"<. c #CBE7F9",
"1. c #CAE7F8",
"2. c #CCE7F8",
"3. c #CDE7F9",
"4. c #CAE7F9",
"5. c #C9E9F9",
"6. c #CBE8F8",
"7. c #CAE8F9",
"8. c #CBE8F9",
"9. c #CBE9F9",
"0. c #CBE9F9",
"q. c #CAEAF9",
"w. c #C9E8FA",
"e. c #C9E9FA",
"r. c #C9E9FB",
"t. c #C8E9FB",
"y. c #CAE8FA",
"u. c #CBE8FA",
"i. c #CAE9FA",
"p. c #CBE9FA",
"a. c #CBE8FB",
"s. c #CAE9FB",
"d. c #CBE9FB",
"f. c #CAE8FB",
"g. c #C9EAFB",
"h. c #CAEAFA",
"j. c #CBEAFA",
"k. c #CAEAFB",
"l. c #CBEAFB",
"z. c #CCE8F8",
"x. c #CCE8F9",
"c. c #CCE9F9",
"v. c #CDE8F9",
"b. c #CEE8F9",
"n. c #CCE8FA",
"m. c #CCE9FA",
"M. c #CDE9FA",
"N. c #CCE9FB",
"B. c #CDE9FB",
"V. c #CEE9FA",
"C. c #CDEAFA",
"Z. c #CCEAFB",
"A. c #CDEAFB",
"S. c #C9E9FC",
"D. c #C8E9FD",
"F. c #C9E9FD",
"G. c #C9E8FC",
"H. c #CAE8FC",
"J. c #CAE9FC",
"K. c #CBE9FC",
"L. c #CAE9FD",
"P. c #CBE9FD",
"I. c #C9EAFC",
"U. c #C9EAFD",
"Y. c #CAEAFC",
"T. c #CBEAFC",
"R. c #CAEBFC",
"E. c #CBEBFC",
"W. c #CAEAFD",
"Q. c #CBEAFD",
"!. c #C8E9FE",
"~. c #C9E9FE",
"^. c #CBE9FE",
"/. c #C9EBFE",
"(. c #CCE8FC",
"). c #CCE9FC",
"_. c #CCE8FD",
"`. c #CCEAFC",
"'. c #CDEAFC",
"]. c #CAE9FB",
/* pixels */
"s.s.s.s.s.s.s.s.s.s.s.s.s.s.s.s.s.s.s.s.s.s.s.s.s.s.s.s.s.s.s.s.s.s.s.s.s.s.s.s.s.s.s.s.s.s.s.s.s.s.s.s.s.s.s.s.s.s.s.s.s.s.s.s.s.s.s.s.s.s.s.s.s.s.s.s.",
"s.s.s.s.s.s.s.s.s.s.s.s.s.s.s.s.s.s.s.s.s.s.s.s.s.s.s.s.s.s.s.s.s.s.s.s.s.s.s.s.s.s.s.s.s.s.s.s.s.s.s.s.s.s.s.s.s.s.s.s.s.s.s.s.s.s.s.s.s.s.s.s.s.s.s.s.",
"s.s.s.s.s.s.s.s.s.s.s.s.s.s.s.s.s.s.s.s.s.s.s.s.s.s.s.s.s.s.s.s.s.s.s.s.s.s.s.s.s.s.s.s.s.s.s.s.s.s.s.s.s.s.s.s.s.s.s.s.s.s.s.s.s.s.s.s.s.s.s.s.s.s.s.s.",
"s.s.s.s.s.s.s.s.s.s.s.s.s.s.s.s.s.s.s.J.s.s.s.s.s.s.s.s.s.s.s.s.s.s.s.s.s.s.s.s.s.s.s.s.s.s.s.s.s.s.s.s.s.s.s.s.s.s.s.s.s.s.s.s.s.s.s.s.s.s.s.s.s.s.s.s.",
"s.s.s.s.s.s.s.s.s.s.s.s.s.s.N.s.s.s.J.J.s.s.s.s.s.s.s.s.s.s.s.s.J.J.J.J.s.`.s.s.s.s.s.s.s.s.s.s.s.s.s.s.s.s.s.s.s.s.s.s.s.s.s.s.s.s.s.s.s.s.s.s.s.s.s.s.",
"s.s.s.s.s.s.s.s.s.s.s.s.s.s.N.s.s.s.J.J.J.s.s.s.J.s.s.s.s.s.g.s.s.J.J.J.J.`.J.s.s.s.s.s.s.s.s.s.s.s.s.s.s.s.s.s.s.s.s.s.s.s.s.s.s.s.s.s.s.s.s.s.s.s.s.s.",
"s.s.s.s.s.s.s.s.s.s.s.s.s.N.s.s.s.s.J.J.J.s._.N.j.3.N.N.j.N.s.s.s.s.J.J.J.J.J.s.s.s.s.s.s.s.s.s.s.s.s.s.s.s.s.s.s.s.s.s.s.s.s.s.s.s.s.s.s.s.s.s.s.s.s.s.",
"s.s.s.s.s.s.s.s.s.s.s.s.s.s.s.s.s.s.s.N.s.N.3.+.Q M M [ N.b.-.N.N.s.J.J.J.J.J.s.s.s.s.s.s.s.s.s.s.s.s.s.s.s.s.s.s.s.s.s.s.s.s.s.s.s.s.s.s.s.s.s.s.s.s.s.",
"s.s.s.s.s.s.s.s.s.s.s.s.s.J.J.s.H.`.3.N.[ Q m m m x x m N B D _.N.N.N.s.s.s.s.s.s.s.s.s.s.s.s.s.s.s.s.s.s.s.s.s.s.s.s.s.s.s.s.s.s.s.s.s.s.s.s.s.s.s.s.s.",
"s.s.s.s.s.s.s.s.s.s.s.s.s.J.J.J.<._.N.3.Q m x x x x x z n C D A N.-.N.N.s.s.s.s.s.s.s.s.s.s.s.s.s.s.s.s.s.s.s.s.s.s.s.s.s.s.s.s.s.s.s.s.s.s.s.s.s.s.s.s.",
"s.s.s.s.s.s.s.s.s.s.s.s.J.J.J.J._.3._.D C c x x x x x x x n c v 3.3.-.s.s.g.s.s.s.s.s.s.s.s.s.s.s.s.s.s.s.s.s.s.s.s.s.s.s.s.s.s.s.s.s.s.s.s.s.s.s.s.s.s.",
"s.s.s.s.s.s.s.N.s.s.s.s.J.J.J.J._._.B A x x x x x x z z z x x x { ) [ [ s.t.5.s.s.s.s.s.s.s.s.s.s.s.s.s.s.s.s.s.s.s.s.s.s.s.s.s.s.s.s.s.s.s.s.s.s.s.s.s.",
"s.s.s.s.s.s.s.g.s.s.s.s.s.s.t.t.A D D x x x z x x x z z z z x x x c v v J./.s.s.s.s.J.J.J.s.s.s.s.s.s.s.s.s.s.s.s.s.s.s.s.s.s.s.s.s.s.s.s.s.s.s.s.s.s.s.",
"s.s.s.s.s.g.=.g./.J./.s.s.*.` m x z m n x x x z x x x z x x x x x x x x m Q O.*.s././.J.J.J.N.s.s.s.s.s.s.s.s.s.s.s.s.s.s.s.s.s.s.s.s.s.s.s.s.s.s.s.s.s.",
"s.s.s.s.s.*.g.g.s./.s.s.N.F m x x x x x x x x x x x x x x x x z x x z x n m K *.g.s.J.D.J.`.`.s.s.s.s.s.s.s.s.s.s.s.s.s.s.s.s.s.s.s.s.s.s.s.s.s.s.s.s.s.",
"s.s.s.s.g.*.g.g.t.s.s.s.` m x x x x x x x x x x z x x z z x x x x x x z x n C O.s.s.D.J.J.`.J.J.s.s.s.s.s.s.s.s.s.s.s.s.s.s.s.s.s.s.s.s.s.s.s.s.s.s.s.s.",
"s.s.s.s.s.-.g.g.s.t.s.( v x x z x x x x z x x z x x x x x x x x x z x z x x x A s.J.J.J.N.N.s.s.s.s.s.s.s.s.s.s.s.s.s.s.s.s.s.s.s.s.s.s.s.s.s.s.s.s.s.s.",
"s.s.s.s.s.g.=.g.s.s.[ M x x x x x x x x x x x x x z z x x z x z x x z x x x x c ( J.J.J.s.g.-.s.s.s.s.s.s.s.s.s.s.s.s.s.s.s.s.s.s.s.s.s.s.s.s.s.s.s.s.s.",
"s.s.s.s.j.g.g.g.s.s.<.m x x x x x x x z z x x x x x x x x z x x z x z x x x z c Q N.s.s.s.s.N.s.s.s.s.s.s.s.s.s.s.s.s.s.s.s.s.s.s.s.s.s.s.s.s.s.s.s.s.s.",
"s.s.s.s.g.j.g.g.s.s./ c x x x z x z x x x x x z x z x x x x x x x z x z x x x n Q %.N.s.g.=.s.s.s.s.s.s.s.s.s.s.s.s.s.s.s.s.s.s.s.s.s.s.s.s.s.s.s.s.s.s.",
"s.s.s.s.N.s.g.g.J.N.` n z z z x z x x z x z x x z x x z x x z x x x x x x z x n K %.<.s.s.=.g.g.s.s.s.s.s.s.s.s.s.s.s.s.s.s.s.s.s.s.s.s.s.s.s.s.s.s.s.s.",
"s.s.s.s.s.N.s.s.J.J.[ c z z x x x x z x x x z x x x x x z x x x x z z x x x x n K N.J.J.g.s.N.*.s.s.s.s.s.s.s.s.s.s.s.s.s.s.s.s.s.s.s.s.s.s.s.s.s.s.s.s.",
"s.s.s.s.s.N.s.s.J.`.{ m b z x z x x x z z x x x x x x x x x z x x x x x x x x n ` J.J.J.g.s.s.s.s.s.s.s.s.s.s.s.s.s.s.s.s.s.s.s.s.s.s.s.s.s.s.s.s.s.s.s.",
"s.s.s.s.s.s.s.J.J.3.D n b z x x z x x z x z x z z x x z x x x x x z x x x x x n M [ J.J.s.s.s.s.s.s.s.s.s.s.s.s.s.s.s.s.s.s.s.s.s.s.s.s.s.s.s.s.s.s.s.s.",
"s.s.s.s.J.`.s.s.s.[ C x z z x z x x z x x x x z x x z x x x x x z x x z x x z x c M ( g.s.s.s.s.s.s.s.s.s.s.s.s.s.s.s.s.s.s.s.s.s.s.s.s.s.s.s.s.s.s.s.s.",
"s.s.s.s.J.J.s.<.O.C x x x z x x x x x x x x x x x x x x x z z x x x x x x x x x x x v s.N.E.s.s.s.s.s.s.s.s.s.s.s.s.s.s.s.s.s.s.s.s.s.s.s.s.s.s.s.s.s.s.",
"s.s.s.s.J.J.J.<.K m x x x x x x x z x z x x z x z x x z x x x x x x x x x x x x z x c O.N./.s.s.s.s.s.s.s.s.s.s.s.s.s.s.s.s.s.s.s.s.s.s.s.s.s.s.s.s.s.s.",
"s.s.s.s.J.J.J.3.C x z x x x z x x x x x x x x x x x x x x x z x z x x z x x x x z z c F N.s.s.s.s.s.s.s.s.s.s.s.s.s.s.s.s.s.s.s.s.s.s.s.s.s.s.s.s.s.s.s.",
"s.s.s.s.s.J.J.[ m b z z z x x z x x x x x z x x x z x z x z z x x x x x x x x x x x x C *.s.J.J.s.s.s.s.s.s.s.s.s.s.s.s.s.s.s.s.s.s.s.s.s.s.s.s.s.s.s.s.",
"s.s.s.s.s.s.J.{ m x b z x x x x x z x z x x x x z x z x x x x x x x x x x x x x x z n m *.s.J.J.s.s.s.s.s.s.s.s.s.s.s.s.s.s.s.s.s.s.s.s.s.s.s.s.s.s.s.s.",
"s.s.s.s.s.s.s.[ m n z z x x x x x z x x x x x x x x z x x x x x x x x x x x x x z z z m [ J.J.J.s.s.s.s.s.s.s.s.s.s.s.s.s.s.s.s.s.s.s.s.s.s.s.s.s.s.s.s.",
"s.s.s.s.s./.s.[ m x z z z x x z x x x x x x x x x z x z z x z x x x x x x x x x z z z m N.J.J.s.s.s.s.s.s.s.s.s.s.s.s.s.s.s.s.s.s.s.s.s.s.s.s.s.s.s.s.s.",
"s.s.s.s.J.J.J.[ v x x x x x z x x x x x x z x x x z x x z x x z x x x x x x x x x x x M *.t.J.s.s.s.s.s.s.s.s.s.s.s.s.s.s.s.s.s.s.s.s.s.s.s.s.s.s.s.s.s.",
"s.s.s.s.s.D.<.<.C c x x z z x x x x x x z x z x x x x z x x x n x z z x x z x z x x c M s.J.J.s.s.s.s.s.s.s.s.s.s.s.s.s.s.s.s.s.s.s.s.s.s.s.s.s.s.s.s.s.",
"s.s.s.s.s.s.s.s.Q c x x z z x x x x x z z z x x x z x x x x x x z x x x z x x z x x v / J.`.s.s.s.s.s.s.s.s.s.s.s.s.s.s.s.s.s.s.s.s.s.s.s.s.s.s.s.s.s.s.",
"s.s.s.s.s.s.s.s.<.A c x x z z x x z x z z x x x x x x x z x x z x x z x x z z z x c P s.J.s.N.s.s.s.s.s.s.s.s.s.s.s.s.s.s.s.s.s.s.s.s.s.s.s.s.s.s.s.s.s.",
"s.s.s.s.s.J.s.H.G.( M c b z x z x x x x x x x x x x x x x x x n n x x x z x z z x F <.J.s.s.*.s.s.s.s.s.s.s.s.s.s.s.s.s.s.s.s.s.s.s.s.s.s.s.s.s.s.s.s.s.",
"s.s.s.s.s.s.s.s.G.t./ v n x x c x x n N m x x x x z z x x x n C N m x x x x x x M [ s.D.J.s.s.s.s.s.s.s.s.s.s.s.s.s.s.s.s.s.s.s.s.s.s.s.s.s.s.s.s.s.s.s.",
"s.s.s.s.s.s.s.s.s.s.J.s.( P v F M Q <.H.D m x z b b z z x c Q N._.{ D A A A v A s.s.s.s.s.s.s.s.s.s.s.s.s.s.s.s.s.s.s.s.s.s.s.s.s.s.s.s.s.s.s.s.s.s.s.s.",
"s.s.s.s.s.s.s.s.s.s.s.s.s.s.s.*.<.3.`.3.<.D C n n b n x m F -.N.`.`._.H.H.H.H.H.s.s.s.s.s.s.s.s.s.s.s.s.s.s.s.s.s.s.s.s.s.s.s.s.s.s.s.s.s.s.s.s.s.s.s.s.",
"s.s.s.s.s.s.s.s.s.s.g.s.s.N.N.C.s.N.N.*.*.[ { D c x c F ] 5.j.N.`.`.N.N.s.N.j.g.s.s.s.s.s.s.s.s.s.s.s.s.s.s.s.s.s.s.s.s.s.s.s.s.s.s.s.s.s.s.s.s.s.N.E.E.",
"s.s.s.s.s.s.s.s.s.s.s.s.s.s.s.s.s.N.s.s.s.s.H.[ v x v ! *.s.g.s._.N.N.s.s.s.N.s.s.s.s.s.s.s.s.s.s.s.s.s.s.s.s.s.s.s.s.s.s.s.s.s.s.s.s.s.s.s.s.s.s.E.E.E.",
"s.s.s.s.s.s.s.s.s.s.s.s.s.s.s.s.s.s.s.s.<.<.<.<.C c c ] s.g.s.t.s.s.s.s.s.s.s.s.*.s.s.s.s.s.s.s.s.s.s.s.s.s.s.s.s.s.s.s.s.s.s.s.s.s.s.s.s.s.s.s.s.s.E.E.",
"s.s.s.s.s.s.s.s.s.s.s.s.s.s.s.s.s.s.s.s.J.s.s./ v c v ] *.g.s.s.s.s.s.s.s.s.s.s.s.s.s.s.s.s.s.s.s.s.s.s.s.s.s.s.s.s.s.s.s.s.s.s.s.s.s.s.s.s.s.s.s.s.E.E.",
"s.s.s.s.s.s.s.s.s.s.s.s.s.s.g.g.g.g.g.g.D.s.s.O.C z v ] =.g.s.g.s.s.g.g.g.g.s.s.s.s.s.s.s.s.s.s.s.s.s.s.s.s.s.s.s.s.s.J.s.s.s.s.g.j.s.s.s.s.s.s.s.s.s.s.",
"s.s.s.s.s.s.s.s.s.s.s.s.s.t./.J./.s./.D.D.s.*.] m c c ] =.g.g.g.s.s.g.g.g.g.s.s.s.s.s.s.s.s.s.s.s.s.s.s.s.s.s.s.s.s.s.J.s.s.s.s.j.g.s.s.s.s.s.s.s.s.s.s.",
"N.s.N.s.N.s.s.s.N.s.N.s.s.s.g./.t.g.g./.s./.s.( C z m L g.g.t.s././.s.g.g.g.g.g.t.t.g.g.g.g.g.g.t.s.s.s.s.s.J.H._.H._.H._.H.J.N.g.g.g.g.g.C.g.g.s.N.N.s.",
"s.N.s.N.s.N.s.s.s.N.s.s.s.s.s.s.s.s.s.s.s.J./.( C z n O.N.N.s.s.s.t.s.s.s.*.s.s.s.s.s.t.s.s.s.s.s.s.s.s.s.s.s.`.H.`.J.`.J.`.J.s.=.=.C.g.=.=.=.C.-.N.-.N.",
"J.J.J.J.J.J.J.s.s.s.s.s.s.s.s.s.g.=.g.=.g.g.g.( v x m O.s.<.s.s.*.s.s.*.s.s.s.s.g.*.s.s.s.H.s.3.s.s.s.s.J.s.N.s.s.s.s.s.s.s.s.g.g.g.g.g.=.g.g.s.-.N.s.N.",
"J.J.J.J.J.J.J.J.J.J.s.J.J.s.-.*.=.=.*.*.-.*.5.! C x n F [ s.( ( ] [ ] *.O.[ [ [ [ ] O.( [ [ [ %.*.*.[ -.[ <.N.s.*.s.g.*.s.s.s.g.g.t.g.g.g.g.g.s.g.s.s.s.",
"H.J.J.J.J.<.<.s.<.:.<.s.t.*.*.O. . .L ! F F F C m x x C F v C C v C v v c v v v c C v M M M C Z F F F O.{ [ [ [ *.5.( *.5.*.*.*.s.*.s.s.s.s.*.g.s.s.s.J.",
"`.3.<.<.[ O.Q F M M v v c v x x z c x x z x x x z z z z x x x x x x x x x z x x x z x x x x z z x x x z x x c n x c c c c v F F L ] O.N.-.-.C.*.s.N.N.g.",
"k j j j h h h h h h h h g g g g g g g g g g g g h g g g g g g g g g g g g g g f d d d d g g g k h g g g g g g g g g h h h h h h k h h h k k k l k l l l ",
"s s s s s s s s s s a a s s s s a a s s s s s s s a s a a s s s s s s s a a a a a a a a s s s s a s s s s s s a s s s a a s s a a s a s a s s s s s s s ",
"i i i i i i i i i i i i i y i i i i i i i i i i i i i i i i i i i i i i i i i i i i i i p p i i i i i i i i i i i i i i i i i i i i i i i i i i i i i i ",
"u u u u u u y y y y y y y y t t y y y y y t y y y y y y u y y y y y y t y y y y t y y t u u y y u y y y y y y y y t y y y y y y y y y y y u y y y y y y ",
"e e e e e e e e e e e e e e e e e e e e e e e e e e e e e e e r 0 0 e e e e e e e e e e r e e e e e e e e e e e 0 e e e e e e e r e e e e e e e e e e e ",
"0 0 0 0 0 0 0 0 0 0 0 0 0 0 0 0 0 0 0 0 0 0 0 0 0 0 0 0 0 0 0 0 0 0 0 0 0 0 0 0 0 0 0 w w e 0 0 0 0 0 0 0 0 0 0 0 0 0 0 0 0 0 0 0 0 0 0 0 0 0 0 0 0 0 0 ",
"0 0 0 0 0 0 0 0 0 0 0 0 0 0 0 0 0 0 9 9 0 0 0 0 0 0 0 0 0 0 0 0 0 0 0 0 0 0 0 0 0 0 9 9 w 0 0 0 0 0 0 0 0 0 0 0 0 0 0 0 0 0 0 0 9 9 0 0 0 0 0 0 0 0 0 0 ",
"0 0 0 0 0 0 0 0 0 0 0 9 0 0 0 0 0 0 9 9 9 0 0 0 0 8 0 0 0 0 0 0 0 0 0 0 0 0 0 0 0 0 0 w w 0 0 0 0 0 0 9 0 0 0 0 0 0 0 0 0 0 0 0 0 0 0 0 0 0 0 0 0 0 0 0 ",
"0 0 0 9 9 9 0 0 0 0 0 0 8 8 9 0 0 9 9 9 0 0 8 8 9 0 0 0 9 9 9 0 9 9 0 0 0 9 9 0 9 9 9 9 q 9 8 0 0 9 9 7 0 9 0 0 0 0 0 0 0 0 0 0 8 9 9 0 9 7 8 9 8 9 0 0 ",
"7 7 8 6 3 3 7 7 7 7 0 0 8 4 6 7 8 8 7 6 7 7 6 4 7 7 7 7 8 8 9 7 3 5 9 0 8 6 5 8 7 5 6 1 6 6 5 8 9 8 6 6 7 8 0 8 5 8 7 4 6 7 7 7 6 7 0 9 7 1 7 8 0 8 7 7 ",
"> < 1 - $ = 2 , > 2 4 5 4 = * 3 4 3 ; = , , = = ; 3 < 1 4 5 5 3 $ ; 2 4 3 = ; 1 < * * * : * > 2 4 , * : 4 5 5 2 ; , 2 = = < , < = < 6 6 < $ < 6 5 2 < ; ",
". O O + o O O X X # & & $ % O @ # # X O O . o o @ O O @ $ & & @   @ # # @ @ X + o o o + + + @ # # @ o X # & = # % O O . o o O O O X # # @ + @ & & & o   "
};
