/* XPM */
static char *_157baac1a4b4a5a867989a88a121dbfsGk4lzvDpxXGuFly[] = {
/* columns rows colors chars-per-pixel */
"64 64 151 2 ",
"   c None",
".  c #2A2F3E",
"X  c #213039",
"o  c #29303D",
"O  c #332F45",
"+  c #372F48",
"@  c #392F49",
"#  c #243640",
"$  c #263A45",
"%  c #273E4B",
"&  c #283F4C",
"*  c #402E4E",
"=  c #452E52",
"-  c #4C2D57",
";  c #552D5E",
":  c #44385C",
">  c #582C60",
",  c #4B3B65",
"<  c #602C66",
"1  c #652C69",
"2  c #67306F",
"3  c #6F2B71",
"4  c #732A74",
"5  c #7D2A7B",
"6  c #29414F",
"7  c #314046",
"8  c #3B494D",
"9  c #35454D",
"0  c #2A4352",
"q  c #2C495A",
"w  c #30465A",
"e  c #2E4F61",
"r  c #3F4D6C",
"t  c #2F5063",
"y  c #305266",
"u  c #32556A",
"i  c #33596F",
"p  c #345B73",
"a  c #365F78",
"s  c #3B5E72",
"d  c #37627C",
"f  c #38647E",
"g  c #4A4F4D",
"h  c #444D4E",
"j  c #4B575D",
"k  c #49585D",
"l  c #595C58",
"z  c #5E5D56",
"x  c #646359",
"c  c #465E6C",
"v  c #486372",
"b  c #43667B",
"n  c #476A7D",
"m  c #506975",
"M  c #526C7A",
"N  c #5C7077",
"B  c #706B60",
"V  c #7C786D",
"C  c #637176",
"Z  c #66787D",
"A  c #727D7C",
"S  c #832A7F",
"D  c #8B8779",
"F  c #8A8476",
"G  c #9D8E77",
"H  c #978B78",
"J  c #A79479",
"K  c #AB987E",
"L  c #3A6681",
"P  c #3C6A85",
"I  c #3D6F8D",
"U  c #3E708F",
"Y  c #3F7493",
"T  c #406A81",
"R  c #4C6E80",
"E  c #45718B",
"W  c #5D7989",
"Q  c #417594",
"!  c #42799B",
"~  c #487F9F",
"^  c #437DA1",
"/  c #832980",
"(  c #92298A",
")  c #4E819F",
"_  c #548098",
"`  c #5F889D",
"'  c #5A869D",
"]  c #778687",
"[  c #64889E",
"{  c #688B9C",
"}  c #7C8B93",
"|  c #4581A4",
" . c #4785AB",
".. c #4886AC",
"X. c #4888AF",
"o. c #5F89A2",
"O. c #5087A8",
"+. c #558AA9",
"@. c #5383A0",
"#. c #4A8DB5",
"$. c #4C8FB8",
"%. c #528EB1",
"&. c #4D92BC",
"*. c #5590B2",
"=. c #5294BB",
"-. c #5896BB",
";. c #779DAE",
":. c #6097B6",
">. c #6A96B0",
",. c #6B99B3",
"<. c #709BB1",
"1. c #7DA5BD",
"2. c #809599",
"3. c #879898",
"4. c #979E96",
"5. c #B19C80",
"6. c #BEA687",
"7. c #B5A993",
"8. c #BCB49F",
"9. c #8299A4",
"0. c #8B9EA1",
"q. c #9EA5A8",
"w. c #93A8AC",
"e. c #9BA7A3",
"r. c #96ACB9",
"t. c #9BB0B3",
"y. c #A8B0A9",
"u. c #B1B7BA",
"i. c #CBAF8C",
"p. c #CBB08F",
"a. c #D6B68F",
"s. c #CFB390",
"d. c #C7B69A",
"f. c #D8BA94",
"g. c #C4BEAB",
"h. c #E4C197",
"j. c #E6C49B",
"k. c #D3C1A4",
"l. c #DECAAC",
"z. c #DBC4A3",
"x. c #E6C8A2",
"c. c #F2CDA1",
"v. c #F7D1A4",
"b. c #FBD4A7",
"n. c #F6D3A8",
"m. c #FFD7A8",
"M. c #9CBBCD",
"N. c #99B3C3",
"B. c #BBCDD9",
"V. c #C4D6E1",
"C. c #F1F2F3",
/* pixels */
"                                                                                                                                ",
"                                                                                                                                ",
"                                                                                                                                ",
"                                                                                                                                ",
"                                                                                                                                ",
"                                                                                                                                ",
"                                                                                                                                ",
"                                                                                                                                ",
"                                                                                                                                ",
"                                                                                                                                ",
"                                                                                                                                ",
"                                      X X X X X X X X X X X X X X X X X X X X X X X X X X X X X                                 ",
"                                    X X X # % % % % % % % # X # % 6 0 0 0 0 0 % 0 0 6 0 0 0 0 6                                 ",
"                                  X X X # q p a p p p p y 0 . 6 u L L L L L L L L L L L L L L p q X                             ",
"                                X X X X % p Y Y Y Y ! ! P t # w U #.#.#.#.#.#.#.#.#.#.#.#.#.#.I t X X                           ",
"                              + = = + # % p ^ +.,.1.o.E T M C W _ #.$.&.&.&.&.&.&.&.&.&.&.&.$.^ f q q                           ",
"                            X * < 4 ; . % p ! ,.M.B.9.v c } u.r.>. .X.$.&.&.&.&.&.&.&.&.&.&.&.#.^ U p 6 X                       ",
"                          X X - 4 ( 1 + % p ! 1.V.C.q.j j q.C.V.1.^  .$.$.$.#.$.&.&.&.&.&.&.&.&.#...f 6 X                       ",
"                          X X = 4 ( 1 @ % p ! 1.V.C.q.j j q.C.V.1.^  .$.X.Y P Y  .&.&.&.&.&.&.#.Q f y $ X                       ",
"                          X X = 4 ( 1 @ % p Y r.V.C.q.j j q.C.V.1.|  .$. .P q p Y &.&.&.&.&.&.Y p 0 $ X X                       ",
"                          X X @ > 5 > O % p ! 1.V.C.q.j c q.C.V.1.|  .$.| L q p Y &.&.&.&.&.&.Y p 6 $ o X                       ",
"                          X X O - > @ O % p ! 1.V.C.q.j j q.C.V.1.|  .$.$.Y P Y #.&.&.&.&.&.&.X.Q f e $ X                       ",
"                          X X X # O # X % i ! 1.V.C.q.j j q.C.V.1.^  .$.&.$.#.$.&.&.&.&.&.&.&.&.#...f 6 X                       ",
"                            X X X X O @ : r L o.N.B.9.v v 9.B.M.,.^  .$.&.&.&.&.&.&.&.&.&.&.&.&.&.#.L 0 X                       ",
"                              X X X = 1 2 , w b [ ;.o.Q Q o.<.,.+.|  .#.&.&.&.&.&.&.&.&.&.&.&.&.&.#.L 6 X                       ",
"                                X X > / / ; . w f ~ ^ ^ ^ ^ ^ ^ ^ ^ X.$.&.&.&.&.&.&.&.&.&.&.&.&.&.#.L 0 X                       ",
"                                X X > / / ; # q L ! ^ ^ ^ Y ^ ^ ^ ^ X.#.&.&.&.&.&.&.&.&.&.&.&.&.&.#.L 0 X                       ",
"                                X O > / / ; . 0 L ^ ^ ~ ^ ^ ^ ^ ^ ^ X.#.&.&.&.&.&.&.&.&.&.&.&.&.&.#.L 0 X                       ",
"                                X X - 3 4 - . q L ^ ^ ^ ^ ^ ^ ^ ^ ^  .#.$.$.&.#. .| ) | | | | | ^ ! p 6 X                       ",
"                                X X + - - + X w d ^ ^ ^ ^ ^ ^ ^ ^ ^ ^  .X.$.&.| U p i i i p i d p i q $ X                       ",
"                                X X X . . X X 0 L ^ ^ ^ ^ ^ ^ ^ ^ ^ ^ ^ | #.$.Y t # # # X # X # # o X X X                       ",
"                                  X X X X X X % y L I Y ^ ^ ^ ^ |  . . . .#.&.^ f e 0 # X X X X X X X X X                       ",
"                                          X X $ 6 q d Y | Y |  .X.X.#.#.#.$.&.X.) I u 6 X X                                     ",
"                                          X X X X X t U ^ ) ) +.*.=.-.-.-.-.-.-.-.*.P 6 X                                       ",
"                                            X X X X y U | { } 0.w.t.t.t.t.t.t.t.t.w.Z 9 X                                       ",
"                                                X $ y U ' 3.7.d.k.l.l.l.l.l.l.l.l.k.D h X                                       ",
"                                                X $ t U ` 4.s.h.c.m.m.m.m.m.m.m.m.v.G g X                                       ",
"                                        X X X X X X t U ` 4.s.h.c.m.m.m.m.m.m.m.m.v.G g X                                       ",
"                                      X X X X X X # t U ` 4.s.h.c.m.b.m.m.m.m.m.m.j.G g X                                       ",
"                                      X X 6 e t t t f Y _ ] H J K 6.f.v.m.m.m.m.m.v.G g X                                       ",
"                                      X % u U Y Y Y Y ^ Q m l z x B K j.m.m.m.m.m.v.G g X                                       ",
"                                      X 6 f ..#.#.#.#.| U u $ # o 7 V p.c.v.b.b.n.j.H g X                                       ",
"                                      X $ y f U ^ #. .| Y P p p i s N F K p.j.z.k.y.A 8 X                                       ",
"                                      X X $ 6 u I | | | | | | | | ) n k x G a.8.w.<.n 0 X                                       ",
"                                      X X X X 0 i U Y Y | X.#.#.$.X.f 0 8 V 7.e.,.$.L 0 X                                       ",
"                                        X X X $ q u f Y | | X. . .| d % 0 N 0.;.-.#.L 0 X                                       ",
"                                          X X X X % t I ! | ^ ^ ) Y a % 0 f *.-.&.#.L 6 X                                       ",
"                                            X X X # q d f f f f f d e $ 6 f $.X.) I p 6 X                                       ",
"                                                    0 q q 0 q q q 0 % $ 0 L #.| f q q                                           ",
"                                                      X X X X X X X X X 0 f  .U t X X                                           ",
"                                                        X X X X X X 6 q i p L p q X                                             ",
"                                                                X X q f f i 0 0                                                 ",
"                                                                X X t f f t X X                                                 ",
"                                                                X X 6 q e q                                                     ",
"                                                                X X X X X                                                       ",
"                                                                  X X X X                                                       ",
"                                                                                                                                ",
"                                                                                                                                ",
"                                                                                                                                ",
"                                                                                                                                ",
"                                                                                                                                ",
"                                                                                                                                ",
"                                                                                                                                ",
"                                                                                                                                "
};
