/* XPM */
static char *f7d2d09e3f93475c859697728cb8da76uEKVeoXNPTqCZrkF[] = {
/* columns rows colors chars-per-pixel */
"64 64 146 2 ",
"   c None",
".  c #2B2F3F",
"X  c #213139",
"o  c #28303D",
"O  c #2D2F41",
"+  c #332F45",
"@  c #3B2E4B",
"#  c #243640",
"$  c #253945",
"%  c #2F3D45",
"&  c #273D4B",
"*  c #283F4C",
"=  c #402E4E",
"-  c #462E53",
";  c #542D5D",
":  c #463156",
">  c #592C61",
",  c #543768",
"<  c #652C69",
"1  c #732B74",
"2  c #7D2A7B",
"3  c #29414F",
"4  c #2A4352",
"5  c #2C495A",
"6  c #39435E",
"7  c #354F5F",
"8  c #2F4F61",
"9  c #2F5063",
"0  c #305265",
"q  c #395360",
"w  c #32556A",
"e  c #33596F",
"r  c #3B5A6B",
"t  c #345B73",
"y  c #365F78",
"u  c #3B5B77",
"i  c #37627B",
"p  c #39647E",
"a  c #47585E",
"s  c #4E5B5E",
"d  c #5C605C",
"f  c #66645B",
"g  c #414667",
"h  c #4D6A7B",
"j  c #5E6F78",
"k  c #667176",
"l  c #396681",
"z  c #3B6A86",
"x  c #3D6E8C",
"c  c #3E718F",
"v  c #3F7393",
"b  c #5B7483",
"n  c #417595",
"m  c #4E7993",
"M  c #42799B",
"N  c #487F9F",
"B  c #557B91",
"V  c #5A7D91",
"C  c #617682",
"Z  c #6A7C86",
"A  c #437DA0",
"S  c #92298B",
"D  c #4C819F",
"F  c #57819A",
"G  c #5A869D",
"H  c #75888D",
"J  c #60889D",
"K  c #688B9C",
"L  c #6E8694",
"P  c #78929A",
"I  c #4580A4",
"U  c #4E85A6",
"Y  c #4684AA",
"T  c #4987AC",
"R  c #4989AF",
"E  c #538DAF",
"W  c #5C8FAD",
"Q  c #4A8CB4",
"!  c #4C8FB8",
"~  c #4D92BC",
"^  c #5494BA",
"/  c #5896BB",
"(  c #628CA2",
")  c #6892AB",
"_  c #779DAE",
"`  c #7E9FAC",
"'  c #6595B2",
"]  c #6B9BB5",
"[  c #719AB2",
"{  c #739EB8",
"}  c #799DB3",
"|  c #75A1B6",
" . c #79A0B7",
".. c #7BA4BD",
"X. c #828B8E",
"o. c #849699",
"O. c #899B9E",
"+. c #A39A87",
"@. c #9CA39B",
"#. c #B2A086",
"$. c #B9A385",
"%. c #A9AA9E",
"&. c #A5A395",
"*. c #BCAC92",
"=. c #B4A993",
"-. c #BEB097",
";. c #BCB49F",
":. c #8AA2A8",
">. c #9BA7A3",
",. c #91A5A8",
"<. c #92A8AD",
"1. c #9FA8AD",
"2. c #87A5B7",
"3. c #95AAB7",
"4. c #9AAFB2",
"5. c #9BB0B3",
"6. c #A0ACA8",
"7. c #A6ADA5",
"8. c #AFB7AF",
"9. c #A4B3BC",
"0. c #B5BAB0",
"q. c #C2B297",
"w. c #CAB79B",
"e. c #D6B995",
"r. c #DFBD94",
"t. c #CFBDA1",
"y. c #C4BEAB",
"u. c #EEC99D",
"i. c #E4C59E",
"p. c #CCC0A8",
"a. c #DECAAC",
"s. c #DBC4A3",
"d. c #E2C6A1",
"f. c #FDD5A6",
"g. c #F4D2A8",
"h. c #FFD7A8",
"j. c #8CAFC5",
"k. c #95B6CA",
"l. c #A8BCC8",
"z. c #BABEC1",
"x. c #ADC6D5",
"c. c #BBCFDB",
"v. c #BCD1DD",
"b. c #D5D8DA",
"n. c #DCE7ED",
"m. c #F3F7F9",
/* pixels */
"                                                                                                                                ",
"                                                                                                                                ",
"                                                                                                                                ",
"                                                                                                                                ",
"                                                                                                                                ",
"                                                                                                                                ",
"                                                                                                                                ",
"                                                                                                                                ",
"                                                                                                                                ",
"                                                                                                                                ",
"                                                                                                                                ",
"                                X X X X X X X X X X X X X X X # X X X X X X X X X X X X X                                       ",
"                                X X # & & * & & * & # X # $ * * 4 4 4 4 4 3 4 4 4 4 4 4 3 &                                     ",
"                            X X X X 4 w t t t t t t 5 $ $ 0 l l l l l l l l l l l l l l i 0 #                                   ",
"                          X X X X # 8 z v M M M M v e & * l Y Q Q Q Q Q Q Q Q Q Q Q Q Q M e o X                                 ",
"                          @ - @ O # 0 c U ' ..) m p h j C B E ! ! ~ ~ ~ ~ ~ ~ ~ ~ ~ ~ ~ Y x w 5 4                               ",
"                      X + ; 1 > @ o 0 c W j.v.3.b 7 Z 1.l.[ T R Q ~ ~ ~ ~ ~ ~ ~ ~ ~ ~ ~ Q I v i 5 X                             ",
"                      X @ < S 1 - # 9 x ' x.m.z.k % X.b.n.k.U Y Q ~ ! Q Q ~ ~ ~ ~ ~ ~ ~ ~ ~ Q x 5 X X                           ",
"                      X @ < S 1 - X w x ' x.m.z.k % X.b.n.k.A Y Q ! I x c I Q ~ ~ ~ ~ ~ R v z e 3 X X                           ",
"                      X @ < S 1 - # 9 v ' x.m.z.k % X.b.n.k.U U Q Q c 9 9 c Q ~ ~ ~ ~ ~ Y z 4 & o X X                           ",
"                      X + > 2 < - # 0 x ' x.m.z.k % X.b.n.k.U Y Q Q x 9 9 x Q ~ ~ ~ ~ ~ Y l 4 & # X X                           ",
"                      X . @ ; - O # 0 x ' x.m.z.k % X.b.n.k.U Y R ~ A c x I ~ ~ ~ ~ ~ ~ Q v z e 4 X X                           ",
"                      X X X . X X # 0 x ' x.m.z.k % X.b.n.k.U Y Q ~ ~ Q ~ ~ ~ ~ ~ ~ ~ ~ ~ ~ Q c 8 X X                           ",
"                      X X X X O @ : g u B 2.c.3.b 7 L l.x...U Y Q ~ ~ ~ ~ ~ ~ ~ ~ ~ ~ ~ ~ ~ ~ v 8 X X                           ",
"                          X X @ > 1 , 6 r V { ) m l V { ] W A Y Q ~ ~ ~ ~ ~ ~ ~ ~ ~ ~ ~ ~ ~ ~ v 5 X X                           ",
"                          X X - 1 S < @ & t M A A A A A A A A Y Q ~ ~ ~ ~ ~ ~ ~ ~ ~ ~ ~ ~ ~ ~ v 0 X X                           ",
"                          X X - 1 S < + & t M A A A A A A A A Y Q ~ ~ ~ ~ ~ ~ ~ ~ ~ ~ ~ ~ ~ ~ v 9 X X                           ",
"                          X X - 1 S < @ & t M A A A A A A A A Y R ~ ~ ~ ~ ~ ~ ~ ~ ~ ~ ~ ~ ~ ~ v 5 X X                           ",
"                          X X = < 2 > + & t M M A A M A A A A Y Q Q ~ ~ ~ T I I I I D I I I I l 5 X X                           ",
"                          X X + - ; = . & t M A A A A A A A A A I Y Q ~ T v t t t i e t t t t 8 3 X X                           ",
"                          X X X X o X X & t M A A A A A A A A A A I T Q I i & X X # # X o # X # X X X                           ",
"                            X X X X X X $ 8 i x v A A A A A Y Y Y Y Q Q Y x 9 5 & X X X X X X X X X                             ",
"                                    X X X & 4 e x I v N I Y Q Q Q Q Q ~ Q I v i 4 X X                                           ",
"                                      X X X X 5 p I I U U E ^ / / / / / / / / n 7 X X                                           ",
"                                        X X X 4 p D J P O.,.4.5.5.5.5.5.5.5.5.H a X X                                           ",
"                                          X X 5 l D P &.q.w.a.a.a.a.a.a.a.a.d.+.d X X                                           ",
"                                          X X 5 i D o.*.r.u.f.h.h.h.h.h.h.h.h.$.f X X                                           ",
"                                  X X X X X X 5 l I o.*.r.u.f.h.h.h.h.h.h.h.h.$.f X X                                           ",
"                                X X X X X X X 5 p D o.*.r.u.f.h.h.h.h.h.h.h.h.$.f X X                                           ",
"                                X X & 5 9 5 9 t c D o.*.r.u.f.h.h.h.h.h.h.h.h.$.f X X                                           ",
"                                X X 5 z v v v v v U o.-.r.u.h.h.h.h.h.h.h.h.h.$.f X X                                           ",
"                                X # e N Q ~ ~ Q I D P =.e.i.g.g.h.h.f.f.f.g.g.#.f X X                                           ",
"                                X X 5 t c v T Y I D K o.@.7.8.p.s.u.u.u.i.p.0.X.s X X                                           ",
"                                X X # 3 9 l A I A I D G ( ) ] <.;.r.r.r.w.6._ F q X X                                           ",
"                                X X X X & 9 x v v I I I Y Q ~ ] >.-.-.-.%.` ^ v 8 X X                                           ",
"                                    X X # 4 9 t c A I R Q ! ~ ' } :.:.:.` ' ^ v 8 X X                                           ",
"                                      X X X # 5 l A T Q ~ ! ~ ~ ~ / ^ ^ ^ ~ ~ v 8 X X                                           ",
"                                      X X X X 5 p I T ! Q I v v v n D Y ! ! ~ v 8 X X                                           ",
"                                          X X 5 p A T Q T x 0 9 9 w l M Y Q ~ v 5 X X                                           ",
"                                          X X 5 l A Y R M e o X X X 9 c I Y Q v 9 X X                                           ",
"                                          X X 5 z A v z i 9 # X X X 9 c M c z t 5 X                                             ",
"                                          X X 4 z v i 8 4 &     X # 9 x v t 4 4                                                 ",
"                                          X X 4 e z w & X       X X 9 p p 8 X X                                                 ",
"                                          X X & 5 9 5 &         X X 3 5 9 5                                                     ",
"                                          X X X X # #           X X X X X                                                       ",
"                                            X X X X               X X X X                                                       ",
"                                                                                                                                ",
"                                                                                                                                ",
"                                                                                                                                ",
"                                                                                                                                ",
"                                                                                                                                ",
"                                                                                                                                ",
"                                                                                                                                ",
"                                                                                                                                "
};
