/* XPM */
static char *b2c0d9896da449e6e08ffe94ee73c959IXRpidntOUbITDOW[] = {
/* columns rows colors chars-per-pixel */
"64 64 82 1 ",
"  c #663300",
". c #7A4600",
"X c #895500",
"o c #895600",
"O c #754200",
"+ c #693600",
"@ c #7F4C00",
"# c #946000",
"$ c #956100",
"% c #885400",
"& c #7B4700",
"* c #6E3B00",
"= c #925E00",
"- c #8E5A00",
"; c #8D5900",
": c #935F00",
"> c #855100",
", c #7A4700",
"< c #814D00",
"1 c #7F4B00",
"2 c #804C00",
"3 c #683500",
"4 c #824E00",
"5 c #7C4900",
"6 c #915D00",
"7 c #8C5800",
"8 c #855200",
"9 c #784500",
"0 c #7E4A00",
"q c #8E5B00",
"w c #683400",
"e c #6F3700",
"r c #6C3600",
"t c #6B3500",
"y c #6D3A00",
"u c #723F00",
"i c #8F5B00",
"p c #884400",
"a c #804000",
"s c #834100",
"d c #6C3900",
"f c #6B3600",
"g c #824100",
"h c #8B5700",
"j c #845000",
"k c #854200",
"l c #6E3700",
"z c #8A5600",
"x c #793D00",
"c c #6F3C00",
"v c #8F5C00",
"b c #693400",
"n c #703D00",
"m c #7D4900",
"M c #905C00",
"N c #6A3500",
"B c #7C3E00",
"V c #713E00",
"C c #744000",
"Z c #7F3F00",
"A c #8B5800",
"S c #7F4000",
"D c #774300",
"F c #814000",
"G c #773B00",
"H c #744100",
"J c #6E3800",
"K c #7D3E00",
"L c #7B3D00",
"P c #7E3F00",
"I c #7A3D00",
"U c #6C3800",
"Y c #783C00",
"T c #874400",
"R c #764300",
"E c #794600",
"W c #7B4800",
"Q c #885500",
"! c #784400",
"~ c #7D4A00",
"^ c #875300",
"/ c #835000",
/* pixels */
"                                                                ",
"  .XooooooooooooooooooooooooooooooooooooooooooooooooooooooooX.  ",
" O+@#$$$$$$$$$$$$$$$$$$$$$$$$$$$$$$$$$$$$$$$$$$$$$$$$$$$$$$#@+O ",
" %&*@#$$#=$$$$$$$$$$$$$$$$$$$$$$$$$$$$$$$$$$$$$$$$$$$-;#$$#@*&% ",
" o:&+>$$X,$$$$$$$$$$$$$$$$$$$$$$$$$$$$$$$$$$$$$$$$$$$<1:$$>+&:o ",
" o$:234$:-$$$$$$$$$$$$$$$$$$$$$$$$$$$$$$$$$$$$$$$$$$$$$$$432:$o ",
" o$$#53>#$$$$$$$$$$$$$$$$$$$$$$$$$$$$$$$$$$$$$$$$$$$$$$#>35#$$o ",
" o$$$#2+@#$$$$$$$$$$$$$$$$$$$$$$$$$$$$$$$$$$$$$$$$$$$$#@+2#$$$o ",
" o$$67:&*@#$$$$$$$$$$$$$$$$$$$$$$$$$$$$$$$$$$$$$$$$$$#@*&:$$$$o ",
" o$$89$:&+50000000000000000000000000000000000000000005+&:$$0q$o ",
" o$$$$$$:,weeeeee reeeer eeeeeewweeeeee reeeet yuuuuu+,:$$$5i$o ",
" o$$$$$$$0epppppp appppa ppppppeepppppp apppsed-$$$$$u0$$$$$$$o ",
" o$$$$$$$0epppppp appppa ppppppeepppppp appsfu-$$$$$$u0$$$$$$$o ",
" o$$$$$$$0epppppp appppa ppppppeepppppp apgeuh$$$7j:$u0$$$$$$$o ",
" o$$$$$$$0epppppp appppa ppppppeepppppp akld-$$$$z@=$u0$$$$$$$o ",
" o$$$$$$$0epppppp appppa ppppppeepppppp xlcv$$$$$$$$$u0$$$$$$$o ",
" o$$$$$$$0epppppp appppa ppppppeepppppp bdv$$$$$$$$$:n,:$$$$$$o ",
" o$$$$$$$0epppppp appppa ppppppeeppppps u-$$$$$$$$$:O m$$$$$$$o ",
" o$$$$$$$0epppppp appppa ppppppeeppppgeno$$$$$$$$$M&Nb0$$$$$$$o ",
" o$$$$$$$0epppppp appppa ppppppeepppkld-$$$$$$$$$:&wBl0$$$$$$$o ",
" o$$$$$$$0epppppp appppa ppppppeeppglcv$$$$$$$$$=VNBpe0$$$$$$$o ",
" o$$$$$$$0epppppp appppa ppppppeepsedv$$$$$$$$$=CtZppe0$$$$$$$o ",
" o$$$$$$$0epppppp appppa ppppppeesfu-$$$$$$$$$6Vtspppe0$$$$$$$o ",
" o$$$$$$$0epppppp appppa ppppppeteuh$$$$$$$$$AurSppppe0$$$$$$$o ",
" o$$$$$$$0epppppp appppa ppppppe d-$$$$$$$$$6D apppppe0$$$$$$$o ",
" o$$$$$$$0epppppp appppa pppppFNcv$$$$$$$$$=Vw ppppppe0$$$$$$$o ",
" o$$$$$$$0epppppp appppa ppppsNni$$$$$$$$$=CtG ppppppe0$$$$$$$o ",
" o$$$$$$$0epppppp appppa pppZfH6$$$$$$$$$:Htsa ppppppe0$$$$$$$o ",
" o$$$$$$$0epppppp appppa ppZJuv$$$$$$$$$M&NKpa ppppppe0$$$$$$$o ",
" o$$$$$$$0epppppp appppa psfu-$$$$$$$$$:&wBppa ppppppe0$$$$$$$o ",
" o$$$$$$$0epppppp appppa FNHv$$$$$$$$$:ONBpppa ppppppe0$$$$$$$o ",
" o$$$$$$$0epppppp appppa Nn6$$$$$$$$$:9 Lppppa ppppppe0$$$$$$$o ",
" o$$$$$$$0epppppp appppP cv$$$$$$$$$#5w appppa ppppppe0$$$$$$$o ",
" o$$$$$$$0epppppp apppsedv$$$$$$$$$:2wI appppa ppppppe0$$$$$$$o ",
" o$$$$$$$0epppppp appsfu-$$$$$$$$$:&wBp appppa ppppppe0$$$$$$$o ",
" o$$$$$$$0epppppp apgeuh$$$$$$$$$:&UYTp appppa ppppppe0$$$$$$$o ",
" o$$$$$$$0epppppp akld-$$$$$$$$$#2wYTpp appppa ppppppe0$$$$$$$o ",
" o$$$$$$$0epppppp xlcv$$$$$$$$$=5wBTppp appppa ppppppe0$$$$$$$o ",
" o$$$$$$$0epppppp bdv$$$$$$$$$:RwIppppp appppa ppppppe0$$$$$$$o ",
" o$$$$$$$0eppppps u-$$$$$$$$$:O lpppppp appppa ppppppe0$$$$$$$o ",
" o$$$$$$$0eppppgeno$$$$$$$$$M&Nbepppppp appppa ppppppe0$$$$$$$o ",
" o$$$$$$$0epppkld-$$$$$$$$$:&wBlepppppp appppa ppppppe0$$$$$$$o ",
" o$$$$$$$0eppglcv$$$$$$$$$=VNBpeepppppp appppa ppppppe0$$$$$$$o ",
" o$$$$$$$0epsedv$$$$$$$$$=CtZppeepppppp appppa ppppppe0$$$$$$$o ",
" o$$$$$$$0esfu-$$$$$$$$$6Vtspppeepppppp appppa ppppppe0$$$$$$$o ",
" o$$$$$$$0teuh$$$$$$$$$AurSppppeepppppp appppa ppppppe0$$$$$$$o ",
" o$$$$$$$0 d-$$$$$$$$$6D apppppeepppppp appppa ppppppe0$$$$$$$o ",
" o$$$$$$:Edv$$$$$$$$$=Vw ppppppeepppppp appppa ppppppe0$$$$$$$o ",
" o$$$$$$$0u$$#-=$$$$=CtG ppppppeepppppp appppa ppppppe0$$$$$$$o ",
" o$$$$$$$0u$$6WX$$$:Htsa ppppppeepppppp appppa ppppppe0$$$$$$$o ",
" o$$$$$$$0u$$#6#$$M&NKpa ppppppeepppppp appppa ppppppe0$$$$$$$o ",
" o$$$$$$$0u$$$$$$:&wBppa ppppppeepppppp appppa ppppppe0$$$$$$$o ",
" o$$$$$$$0u$$$$$=ONBpppa ppppppeepppppp appppa ppppppe0$$$$$$$o ",
" o$$$$$$#5+uuuuuc bleeer eeeeeewweeeeee reeeer eeeeeew5#$$$$$$o ",
" o$:Q;$#@+,00000!m00000000000000000000000000000000000,+@#$$6:$o ",
" o$6~z#@*&:$$$$$=$$$$$$$$$$$$$$$$$$$$$$$$$$$$$$$$$$$$:&*@#$~^$o ",
" o$$$$>+&:$$$$$$$$$$$$$$$$$$$$$$$$$$$$$$$$$$$$$$$$$$$$:&+>$;M$o ",
" o$$$432:$$$$$$$$$$$$$$$$$$$$$$$$$$$$$$$$$$$$$$$$$$$$$$:234$$$o ",
" o$#>35#$$$$$$$$$$$$$$$$$$$$$$$$$$$$$$$$$$$$$$$$$$$$$$$$#53>#$o ",
" o#@+2#$v9-$$$$$$$$$$$$$$$$$$$$$$$$$$$$$$$$$$$$$$$$$$$$/,#2+@#o ",
" X@*&:$$#7:$$$$$$$$$$$$$$$$$$$$$$$$$$$$$$$$$$$$$$$$$$$$=6$:&*@X ",
" .+&:$$$$$$$$$$$$$$$$$$$$$$$$$$$$$$$$$$$$$$$$$$$$$$$$$$$$$$:&+. ",
"  O%oooooooooooooooooooooooooooooooooooooooooooooooooooooooo%O  ",
"                                                                "
};
